<svg viewBox="0 0 25 18" version="1.1" xmlns="http://www.w3.org/2000/svg">
    <g stroke="none" fill="currentColor">
        <path transform="translate(0.000000, -0.1099)" d="M11.901136,11.1768 L8.734336,3.8588 L5.552976,11.1768 L11.901136,11.1768 Z M0.000416,17.9998 L0.000416,17.5078 C0.709696,17.4298 1.243216,17.1728 1.598896,16.7348 C1.954576,16.2998 2.562976,15.1038 3.426176,13.1488 L9.182576,0.1098 L9.732736,0.1098 L16.617536,15.1728 C17.077216,16.1708 17.443296,16.7878 17.716816,17.0238 C17.991376,17.2598 18.453136,17.4218 19.100016,17.5078 L19.100016,17.9998 L12.073776,17.9998 L12.073776,17.5078 C12.880816,17.4378 13.401856,17.3528 13.635856,17.2558 C13.869856,17.1568 13.986336,16.9138 13.986336,16.5258 C13.986336,16.3958 13.941616,16.1698 13.850096,15.8428 C13.760656,15.5138 13.635856,15.1708 13.473616,14.8078 L12.367056,12.2538 L5.083936,12.2538 C4.366336,13.9918 3.937856,15.0518 3.798496,15.4348 C3.659136,15.8188 3.589456,16.1218 3.589456,16.3448 C3.589456,16.7938 3.778736,17.1028 4.156256,17.2738 C4.389216,17.3778 4.829136,17.4558 5.476016,17.5078 L5.476016,17.9998 L0.000416,17.9998 Z"></path>
        <path transform="translate(14.560000, -0.1099)" d="M6.800664,5.6431 L5.217784,1.9841 L3.626584,5.6431 L6.800664,5.6431 Z M0.849784,9.0551 L0.849784,8.8091 C1.204424,8.7701 1.471704,8.6411 1.649544,8.4221 C1.827384,8.2051 2.132104,7.6071 2.563704,6.6291 L5.441384,0.1101 L5.715944,0.1101 L9.159384,7.6411 C9.388184,8.1401 9.571224,8.4491 9.708504,8.5671 C9.846824,8.6851 10.075624,8.7661 10.400104,8.8091 L10.400104,9.0551 L6.886984,9.0551 L6.886984,8.8091 C7.290504,8.7741 7.551544,8.7311 7.668024,8.6831 C7.784504,8.6331 7.842744,8.5121 7.842744,8.3181 C7.842744,8.2531 7.819864,8.1401 7.775144,7.9761 C7.730424,7.8121 7.668024,7.6401 7.586904,7.4591 L7.033624,6.1821 L3.392584,6.1821 C3.033784,7.0511 2.819544,7.5801 2.748824,7.7721 C2.679144,7.9641 2.644824,8.1161 2.644824,8.2271 C2.644824,8.4521 2.739464,8.6061 2.927704,8.6921 C3.045224,8.7441 3.264664,8.7831 3.588104,8.8091 L3.588104,9.0551 L0.849784,9.0551 Z"></path>
    </g>
</svg>