<svg viewBox="0 0 18 18" version="1.1" xmlns="http://www.w3.org/2000/svg">
<g fill="currentColor" stroke="none" transform="translate(0, -1)">
    <path d="M16.4747919,9.25098332 C16.4747919,10.9003196 15.9916522,12.4366265 15.159399,13.7256565 L17.5918433,16.2445263 C18.1500165,16.8225316 18.133166,17.7443333 17.5568312,18.3008933 C16.9793213,18.8585881 16.0601895,18.8436984 15.500495,18.2641178 L13.175006,15.8560035 C11.7991007,16.8896181 10.0896414,17.5019667 8.23739593,17.5019667 C7.57019517,17.5019667 6.92152129,17.4225129 6.30029046,17.2725361 L7.9275525,14.7875881 C8.05063703,14.7958187 8.17483022,14.8 8.3,14.8 C11.3375661,14.8 13.8,12.3375661 13.8,9.3 C13.8,8.38585575 13.5769806,7.52380047 13.1823828,6.76527501 L14.8112964,4.27830757 C15.8554518,5.66107595 16.4747919,7.38358303 16.4747919,9.25098332 Z M8.23739593,1 C9.46757171,1 10.6347645,1.27010707 11.6830872,1.75434199 L10.1376502,4.11448829 C9.56300268,3.91083702 8.94444503,3.8 8.3,3.8 C5.26243387,3.8 2.8,6.26243388 2.8,9.3 C2.8,10.7518104 3.36251343,12.0722387 4.28148026,13.055225 L2.74507855,15.4003635 C1.06026437,13.8895721 0,11.6943009 0,9.25098332 C0,4.69409106 3.68800779,1 8.23739593,1 Z M9.017,13.123 L9.01785714,13.9285714 L8.489,13.928 L9.017,13.123 Z M8.125,5 C8.58034302,5 9.01324291,5.08391234 9.40376701,5.23463775 L8.37572175,6.80291639 C8.29400347,6.79165108 8.21012465,6.78571429 8.125,6.78571429 C7.45916667,6.78571429 6.86955556,7.14893651 6.7939,7.58428466 L6.78571429,7.67857143 L5,7.67857143 C5,6.20178571 6.40178571,5 8.125,5 Z"></path>
    <polygon points="13.3780364 0.990553326 15.0511133 2.08636977 4.62196356 18.0094467 2.94888666 16.9136302"></polygon>
</g>
</svg>