<svg viewBox="0 0 34 29" version="1.1" xmlns="http://www.w3.org/2000/svg" xmlns:xlink="http://www.w3.org/1999/xlink">
<path stroke="none" fill="currentColor" d="M4.95227,11.0220471 C4.07932,11.0220471 3.37127,10.3115471 3.37127,9.43642941 C3.37127,8.56045882 4.07932,7.85081176 4.95227,7.85081176 C5.82437,7.85081176 6.53157,8.56045882 6.53157,9.43642941 C6.53157,10.3115471 5.82437,11.0220471 4.95227,11.0220471 M30.60017,4.69151765 L3.40017,4.69151765 C1.52252,4.69151765 0.00017,6.21913529 0.00017,8.10328235 L0.00017,16.6326941 C0.00017,18.5168412 1.52252,20.0444588 3.40017,20.0444588 L5.10017,20.0444588 L5.10017,17.0591647 C5.10017,15.4129882 6.43467,14.0738706 8.07517,14.0738706 L25.92517,14.0738706 C27.56567,14.0738706 28.90017,15.4129882 28.90017,17.0591647 L28.90017,20.0444588 L30.60017,20.0444588 C32.47782,20.0444588 34.00017,18.5168412 34.00017,16.6326941 L34.00017,8.10328235 C34.00017,6.21913529 32.47782,4.69151765 30.60017,4.69151765 M21.67517,21.5371059 L11.47517,21.5371059 C10.88782,21.5371059 10.41267,21.0594588 10.41267,20.4709294 C10.41267,19.8815471 10.88782,19.4047529 11.47517,19.4047529 L21.67517,19.4047529 C22.26252,19.4047529 22.73767,19.8815471 22.73767,20.4709294 C22.73767,21.0594588 22.26252,21.5371059 21.67517,21.5371059 M17.42517,25.8018118 L11.47517,25.8018118 C10.88782,25.8018118 10.41267,25.3241647 10.41267,24.7356353 C10.41267,24.1462529 10.88782,23.6694588 11.47517,23.6694588 L17.42517,23.6694588 C18.01252,23.6694588 18.48767,24.1462529 18.48767,24.7356353 C18.48767,25.3241647 18.01252,25.8018118 17.42517,25.8018118 M25.92517,16.2062235 L8.07517,16.2062235 C7.60597,16.2062235 7.22517,16.5874882 7.22517,17.0591647 L7.22517,26.8679882 C7.22517,27.8096353 7.98592,28.5738706 8.92517,28.5738706 L25.07517,28.5738706 C26.01357,28.5738706 26.77517,27.8096353 26.77517,26.8679882 L26.77517,17.0591647 C26.77517,16.5874882 26.39437,16.2062235 25.92517,16.2062235 M8.11427,2.55916471 L25.88607,2.55916471 C26.59072,2.55916471 27.16107,1.98598824 27.16107,1.27975294 C27.16107,0.572664706 26.59072,0.000341176471 25.88607,0.000341176471 L8.11427,0.000341176471 C7.41047,0.000341176471 6.83927,0.572664706 6.83927,1.27975294 C6.83927,1.98598824 7.41047,2.55916471 8.11427,2.55916471"></path>
</svg>