<?xml version="1.0" encoding="UTF-8"?>
<svg id="Capa_1" data-name="Capa 1" xmlns="http://www.w3.org/2000/svg" viewBox="0 0 126.217 138.303">
  <defs>
    <style>
      .cls-1 {
        fill: #cffdff;
        stroke-width: 0px;
      }
    </style>
  </defs>
  <path class="cls-1" d="m126.165,119.235c-10.585,1.009-11.39,2.131-12.012,19.013-.003.074-.112.074-.114,0-.622-16.882-1.428-18.003-12.012-19.013-.069-.007-.069-.107,0-.114,10.585-1.009,11.39-2.131,12.012-19.013.003-.074.112-.074.114,0,.622,16.882,1.428,18.003,12.012,19.013.069.007.069.107,0,.114Z"/>
  <path class="cls-1" d="m42.587,91.212c-4.253.406-4.577.856-4.827,7.64-.001.03-.045.03-.046,0-.25-6.783-.574-7.234-4.827-7.64-.028-.003-.028-.043,0-.046,4.253-.406,4.577-.856,4.827-7.64.001-.03.045-.03.046,0,.25,6.783.574,7.234,4.827,7.64.028.003.028.043,0,.046Z"/>
  <path class="cls-1" d="m116.076,94.117c-3.295.314-3.546.663-3.739,5.919,0,.023-.035.023-.036,0-.194-5.255-.444-5.604-3.739-5.919-.022-.002-.022-.033,0-.036,3.295-.314,3.546-.663,3.739-5.919,0-.023.035-.023.036,0,.194,5.255.444,5.604,3.739,5.919.022.002.022.033,0,.036Z"/>
  <path class="cls-1" d="m81.608,19.565c-3.295.314-3.546.663-3.739,5.919,0,.023-.035.023-.036,0-.194-5.255-.444-5.604-3.739-5.919-.022-.002-.022-.033,0-.036,3.295-.314,3.546-.663,3.739-5.919,0-.023.035-.023.036,0,.194,5.255.444,5.604,3.739,5.919.022.002.022.033,0,.036Z"/>
  <path class="cls-1" d="m92.802,48.386c-3.295.314-3.546.663-3.739,5.919,0,.023-.035.023-.036,0-.194-5.255-.444-5.604-3.739-5.919-.022-.002-.022-.033,0-.036,3.295-.314,3.546-.663,3.739-5.919,0-.023.035-.023.036,0,.194,5.255.444,5.604,3.739,5.919.022.002.022.033,0,.036Z"/>
  <path class="cls-1" d="m28.654,54.339c-3.295.314-3.546.663-3.739,5.919,0,.023-.035.023-.036,0-.194-5.255-.444-5.604-3.739-5.919-.022-.002-.022-.033,0-.036,3.295-.314,3.546-.663,3.739-5.919,0-.023.035-.023.036,0,.194,5.255.444,5.604,3.739,5.919.022.002.022.033,0,.036Z"/>
  <path class="cls-1" d="m15.924,8.966c-1.652.158-1.778.333-1.875,2.968,0,.011-.017.011-.018,0-.097-2.635-.223-2.811-1.875-2.968-.011-.001-.011-.017,0-.018,1.652-.158,1.778-.333,1.875-2.968,0-.011.017-.011.018,0,.097,2.635.223,2.811,1.875,2.968.011.001.011.017,0,.018Z"/>
  <path class="cls-1" d="m39.622,2.995c-1.652.158-1.778.333-1.875,2.968,0,.011-.017.011-.018,0-.097-2.635-.223-2.811-1.875-2.968-.011-.001-.011-.017,0-.018,1.652-.158,1.778-.333,1.875-2.968,0-.011.017-.011.018,0,.097,2.635.223,2.811,1.875,2.968.011.001.011.017,0,.018Z"/>
  <path class="cls-1" d="m115.979,31.117c-1.652.158-1.778.333-1.875,2.968,0,.011-.017.011-.018,0-.097-2.635-.223-2.811-1.875-2.968-.011-.001-.011-.017,0-.018,1.652-.158,1.778-.333,1.875-2.968,0-.011.017-.011.018,0,.097,2.635.223,2.811,1.875,2.968.011.001.011.017,0,.018Z"/>
  <path class="cls-1" d="m116.095,56.281c-1.652.158-1.778.333-1.875,2.968,0,.011-.017.011-.018,0-.097-2.635-.223-2.811-1.875-2.968-.011-.001-.011-.017,0-.018,1.652-.158,1.778-.333,1.875-2.968,0-.011.017-.011.018,0,.097,2.635.223,2.811,1.875,2.968.011.001.011.017,0,.018Z"/>
  <path class="cls-1" d="m77.854,86.499c-1.652.158-1.778.333-1.875,2.968,0,.011-.017.011-.018,0-.097-2.635-.223-2.811-1.875-2.968-.011-.001-.011-.017,0-.018,1.652-.158,1.778-.333,1.875-2.968,0-.011.017-.011.018,0,.097,2.635.223,2.811,1.875,2.968.011.001.011.017,0,.018Z"/>
  <path class="cls-1" d="m69.773,46.727c-1.345.128-1.448.271-1.527,2.416,0,.009-.014.009-.015,0-.079-2.146-.181-2.288-1.527-2.416-.009,0-.009-.014,0-.014,1.345-.128,1.448-.271,1.527-2.416,0-.009.014-.009.015,0,.079,2.146.181,2.288,1.527,2.416.009,0,.009.014,0,.014Z"/>
  <path class="cls-1" d="m72.565,40.013c-1.419.135-1.527.286-1.61,2.549,0,.01-.015.01-.015,0-.083-2.263-.191-2.414-1.61-2.549-.009,0-.009-.014,0-.015,1.419-.135,1.527-.286,1.61-2.549,0-.01.015-.01.015,0,.083,2.263.191,2.414,1.61,2.549.009,0,.009.014,0,.015Z"/>
  <path class="cls-1" d="m69.731,113.164c-1.652.158-1.778.333-1.875,2.968,0,.011-.017.011-.018,0-.097-2.635-.223-2.811-1.875-2.968-.011-.001-.011-.017,0-.018,1.652-.158,1.778-.333,1.875-2.968,0-.011.017-.011.018,0,.097,2.635.223,2.811,1.875,2.968.011.001.011.017,0,.018Z"/>
  <path class="cls-1" d="m99.743,73.039c-1.652.158-1.778.333-1.875,2.968,0,.011-.017.011-.018,0-.097-2.635-.223-2.811-1.875-2.968-.011-.001-.011-.017,0-.018,1.652-.158,1.778-.333,1.875-2.968,0-.011.017-.011.018,0,.097,2.635.223,2.811,1.875,2.968.011.001.011.017,0,.018Z"/>
  <path class="cls-1" d="m57.376,73.039c-1.652.158-1.778.333-1.875,2.968,0,.011-.017.011-.018,0-.097-2.635-.223-2.811-1.875-2.968-.011-.001-.011-.017,0-.018,1.652-.158,1.778-.333,1.875-2.968,0-.011.017-.011.018,0,.097,2.635.223,2.811,1.875,2.968.011.001.011.017,0,.018Z"/>
  <path class="cls-1" d="m47.354,59.267c-1.652.158-1.778.333-1.875,2.968,0,.011-.017.011-.018,0-.097-2.635-.223-2.811-1.875-2.968-.011-.001-.011-.017,0-.018,1.652-.158,1.778-.333,1.875-2.968,0-.011.017-.011.018,0,.097,2.635.223,2.811,1.875,2.968.011.001.011.017,0,.018Z"/>
  <path class="cls-1" d="m49.246,25.509c-1.652.158-1.778.333-1.875,2.968,0,.011-.017.011-.018,0-.097-2.635-.223-2.811-1.875-2.968-.011-.001-.011-.017,0-.018,1.652-.158,1.778-.333,1.875-2.968,0-.011.017-.011.018,0,.097,2.635.223,2.811,1.875,2.968.011.001.011.017,0,.018Z"/>
  <path class="cls-1" d="m7.531,76.016c-3.295.314-3.546.663-3.739,5.919,0,.023-.035.023-.036,0-.194-5.255-.444-5.604-3.739-5.919-.022-.002-.022-.033,0-.036,3.295-.314,3.546-.663,3.739-5.919,0-.023.035-.023.036,0,.194,5.255.444,5.604,3.739,5.919.022.002.022.033,0,.036Z"/>
  <path class="cls-1" d="m8.96,34.094c-3.295.314-3.546.663-3.739,5.919,0,.023-.035.023-.036,0-.194-5.255-.444-5.604-3.739-5.919-.022-.002-.022-.033,0-.036,3.295-.314,3.546-.663,3.739-5.919,0-.023.035-.023.036,0,.194,5.255.444,5.604,3.739,5.919.022.002.022.033,0,.036Z"/>
  <path class="cls-1" d="m21.107,117.222c-3.295.314-3.546.663-3.739,5.919,0,.023-.035.023-.036,0-.194-5.255-.444-5.604-3.739-5.919-.022-.002-.022-.033,0-.036,3.295-.314,3.546-.663,3.739-5.919,0-.023.035-.023.036,0,.194,5.255.444,5.604,3.739,5.919.022.002.022.033,0,.036Z"/>
</svg>