<?xml version="1.0" encoding="UTF-8"?>
<svg id="Capa_1" data-name="Capa 1" xmlns="http://www.w3.org/2000/svg" viewBox="0 0 60.02 60.02">
  <defs>
    <style>
      .cls-1 {
        fill: #662483;
        stroke: #652581;
        stroke-miterlimit: 10;
      }
    </style>
  </defs>
  <path class="cls-1" d="m29.29,54.51c-5.11,0-9.27-4.16-9.27-9.27,0-.64.51-1.15,1.15-1.15s1.15.52,1.15,1.15c0,3.84,3.12,6.97,6.96,6.97,4.5,0,6.32-4.54,7-7.25,1.35-5.35,4.49-8.05,7.26-10.42,3.49-3,6.51-5.59,6.51-12.87,0-7.64-6.22-13.86-13.86-13.86s-13.86,6.22-13.86,13.86c0,.64-.51,1.15-1.15,1.15s-1.15-.51-1.15-1.15c0-8.91,7.25-16.16,16.16-16.16s16.17,7.25,16.17,16.16c0,8.34-3.72,11.53-7.31,14.61-2.75,2.36-5.36,4.6-6.52,9.24-1.44,5.71-4.8,8.99-9.23,8.99Z"/>
  <path class="cls-1" d="m8.62,35.73c-.18,0-.37-.05-.53-.16-.44-.29-.56-.89-.27-1.33.22-.33.33-.7.33-1.09s-.11-.76-.33-1.09c-.29-.44-.17-1.04.27-1.33.44-.29,1.04-.17,1.33.27.42.64.65,1.38.65,2.15s-.22,1.51-.65,2.15c-.18.28-.49.43-.8.43Z"/>
  <path class="cls-1" d="m12.85,38.53c-.18,0-.37-.05-.53-.16-.44-.29-.56-.89-.27-1.33.76-1.16,1.17-2.5,1.17-3.89s-.4-2.73-1.17-3.89c-.29-.44-.17-1.04.27-1.33.44-.29,1.04-.17,1.33.27.97,1.47,1.49,3.18,1.49,4.94s-.51,3.47-1.49,4.94c-.18.28-.49.43-.8.43Z"/>
  <path class="cls-1" d="m17.08,41.32c-.18,0-.37-.05-.53-.16-.44-.29-.56-.89-.27-1.33,1.32-1.98,2.01-4.29,2.01-6.68s-.7-4.69-2.01-6.68c-.29-.44-.17-1.04.27-1.33.44-.29,1.04-.17,1.33.27,1.52,2.3,2.33,4.98,2.33,7.74s-.81,5.44-2.33,7.74c-.18.28-.49.43-.8.43Z"/>
  <path class="cls-1" d="m30.21,34.3c-.64,0-1.15-.52-1.15-1.15s.51-1.15,1.15-1.15c1.97,0,3.57-1.6,3.57-3.57s-1.6-3.57-3.57-3.57c-.64,0-1.15-.51-1.15-1.15,0-3.93,3.2-7.14,7.14-7.14s7.14,3.2,7.14,7.14c0,.64-.52,1.15-1.15,1.15s-1.15-.51-1.15-1.15c0-2.67-2.17-4.83-4.83-4.83-2.32,0-4.26,1.64-4.73,3.82,2.63.58,4.61,2.93,4.61,5.73,0,3.24-2.63,5.87-5.87,5.87Z"/>
</svg>