<?xml version="1.0" encoding="utf-8"?>
<!-- Generator: Adobe Illustrator 28.1.0, SVG Export Plug-In . SVG Version: 6.00 Build 0)  -->
<svg version="1.1" id="Capa_5" xmlns="http://www.w3.org/2000/svg" xmlns:xlink="http://www.w3.org/1999/xlink" x="0px" y="0px"
	 viewBox="0 0 949.3 453.5" style="enable-background:new 0 0 949.3 453.5;" xml:space="preserve">
<style type="text/css">
	.st0{fill:url(#SVGID_1_);}
	.st1{fill:url(#SVGID_00000013899307808731814240000015533825272316659610_);}
	.st2{fill:#FFFFFF;}
</style>
<g>
	<g>
		<g>
			<g>
				
					<linearGradient id="SVGID_1_" gradientUnits="userSpaceOnUse" x1="159.5794" y1="517.8291" x2="159.5794" y2="592.5704" gradientTransform="matrix(1 0 0 -1 0 848.9291)">
					<stop  offset="0" style="stop-color:#FF0066"/>
					<stop  offset="1" style="stop-color:#0000FF"/>
				</linearGradient>
				<path class="st0" d="M197.8,331.1c-63.3,0-86.5-56-87.5-58.4c-2.4-6.1,0.5-13,6.6-15.5c6.1-2.4,13,0.5,15.5,6.6
					c0.8,1.9,18.5,43.5,65.4,43.5c6.6,0,11.9,5.3,11.9,11.9S204.4,331.1,197.8,331.1z"/>
			</g>
			<g>
				
					<linearGradient id="SVGID_00000008108611957614704590000017047786057825211776_" gradientUnits="userSpaceOnUse" x1="58.0482" y1="560.5354" x2="195.0117" y2="697.499" gradientTransform="matrix(1 0 0 -1 0 848.9291)">
					<stop  offset="0" style="stop-color:#FF0066"/>
					<stop  offset="1" style="stop-color:#0000FF"/>
				</linearGradient>
				<path style="fill:url(#SVGID_00000008108611957614704590000017047786057825211776_);" d="M119.2,337c-1.8,0-3.7-0.4-5.5-1.4
					c-25.9-13.5-45.4-34.3-56.6-60.2c-10.2-23.6-12.5-49.9-6.7-73.9c10.5-42.8,44.1-69.4,87.7-69.4c56.6,0,82.4,40.5,82.4,78.1
					c0,22.1-10.3,42.8-28.2,56.6c-19.9,15.3-46.8,20-74,12.9c-6.4-1.7-10.2-8.2-8.5-14.5s8.2-10.2,14.5-8.5
					c20.2,5.3,39.2,2.2,53.4-8.8c12-9.3,18.9-23.1,18.9-37.8c0-27-18.1-54.3-58.6-54.3c-32.6,0-56.7,19.2-64.6,51.3
					c-8.4,34.5,4,82.8,51.1,107.3c5.8,3,8.1,10.2,5.1,16.1C127.7,334.7,123.5,337,119.2,337z"/>
			</g>
		</g>
	</g>
	<g>
		<g>
			<path class="st2" d="M317.5,250.1h-14.9v34.6H283v-99.6h39.8c18.4,0,33.1,14.8,33.1,33c0,12.5-7.8,23.8-19.2,29l22,37.6h-21.2
				L317.5,250.1z M302.5,232.9h20.2c7.4,0,13.5-6.5,13.5-14.8s-6.1-14.6-13.5-14.6h-20.2V232.9z"/>
			<path class="st2" d="M363.9,193.8c0-6.1,5.1-11.4,11.2-11.4c6.3,0,11.4,5.3,11.4,11.4c0,6.1-5.1,11.2-11.4,11.2
				C369,205.1,363.9,199.9,363.9,193.8z M366,213.6h18.4v71.1H366V213.6z"/>
			<path class="st2" d="M393,249.1c0-21.2,15.9-37.6,37.6-37.6c13.9,0,26,7.4,31.9,18.4l-15.8,9.2c-2.8-5.8-9-9.5-16.2-9.5
				c-11,0-19.1,8.1-19.1,19.5c0,11.2,8.1,19.3,19.1,19.3c7.4,0,13.5-3.6,16.4-9.4l15.9,9.1c-6.1,11.1-18.2,18.5-32.1,18.5
				C408.9,286.7,393,270.3,393,249.1z"/>
			<path class="st2" d="M535.8,241v43.7h-18.3v-41.4c0-9.7-5.8-14.6-14.1-14.6c-9,0-15.6,5.3-15.6,17.6v38.4h-18.4v-99.6h18.4v36.4
				c4.3-6.4,11.7-10,21.2-10C524,211.6,535.8,222.1,535.8,241z"/>
			<path class="st2" d="M653.7,240.9v43.8h-18.3v-42.5c0-8.4-4.3-13.5-12-13.5c-8.1,0-13.2,5.4-13.2,16.1v40h-18.3v-42.5
				c0-8.4-4.3-13.5-12-13.5c-7.8,0-13.4,5.4-13.4,16.1v40h-18.3v-71.1h18.3v7.5c4-6,10.7-9.5,19.8-9.5c8.8,0,15.4,3.7,19.3,10.2
				c4.4-6.4,11.5-10.2,21.2-10.2C643.1,211.6,653.7,223.1,653.7,240.9z"/>
			<path class="st2" d="M662.2,249.1c0-21.2,16.6-37.6,37.6-37.6c20.9,0,37.7,16.4,37.7,37.6s-16.8,37.6-37.7,37.6
				C678.9,286.7,662.2,270.3,662.2,249.1z M719.2,249.1c0-11.5-8.4-19.6-19.3-19.6c-10.8,0-19.2,8.1-19.2,19.6s8.4,19.6,19.2,19.6
				C710.8,268.8,719.2,260.7,719.2,249.1z"/>
			<path class="st2" d="M813,241v43.7h-18.3v-41.4c0-9.7-5.8-14.6-14.1-14.6c-9,0-15.7,5.3-15.7,17.6v38.4h-18.4v-71.1h18.3v8
				c4.3-6.4,11.7-10,21.2-10C801.2,211.6,813,222.1,813,241z"/>
			<path class="st2" d="M897.5,185.1v99.6h-18.3v-8.4c-5.1,6.5-12.7,10.4-23,10.4c-19.1,0-34.7-16.4-34.7-37.6s15.7-37.6,34.7-37.6
				c10.4,0,17.9,3.8,23,10.4V185L897.5,185.1L897.5,185.1z M879.2,249.1c0-11.9-8.4-20.1-19.6-20.1c-11.4,0-19.8,8.1-19.8,20.1
				s8.4,20.1,19.8,20.1C870.8,269.2,879.2,261.1,879.2,249.1z"/>
		</g>
	</g>
</g>
</svg>
