<svg viewBox="0 0 19 19" xmlns="http://www.w3.org/2000/svg">
<path transform="translate(-3, -3)" fill="currentColor" d="M15.708407,4.31328759 L15.6514918,4.37541759 L14.062241,6.23443686 C11.9590673,5.0196721 9.2237032,5.31183071 7.4246212,7.1109127 C5.2767376,9.25879631 5.2767376,12.7412037 7.4246212,14.8890873 C9.57250481,17.0369709 13.0549122,17.0369709 15.2027958,14.8890873 C16.3483847,13.7434984 16.8829657,12.2182778 16.8065387,10.718384 L18.8547903,8.32382527 C19.7140825,10.7505407 19.3666513,13.5090677 17.8124966,15.6674654 L21.3413173,18.9026603 C21.9520245,19.4624175 21.9933276,20.4112665 21.4335703,21.0219737 C20.9067399,21.5967569 20.0352471,21.6671545 19.4253909,21.2067744 L19.3142569,21.1142267 L15.6305357,17.7373577 C12.5336912,19.7258159 8.36564813,19.3656481 5.65685425,16.6568542 C2.53265992,13.5326599 2.53265992,8.46734008 5.65685425,5.34314575 C8.38841934,2.61158066 12.6038708,2.26829461 15.708407,4.31328759 Z M19.5376685,3.76656405 C20.0274106,4.18527236 20.1138054,4.90053453 19.7584066,5.42066169 L19.6754736,5.52895157 L12.3677791,14.0763955 L8.35178066,10.5715662 C7.83164677,10.1176367 7.77797757,9.3280022 8.23190714,8.80786831 C8.65557474,8.32241001 9.3716786,8.24329428 9.88816426,8.60396467 L9.99560506,8.68799479 L12.1086929,10.5316604 L17.7752809,3.90436916 C18.223897,3.37964546 19.0129448,3.31794801 19.5376685,3.76656405 Z"></path>
</svg>