<!-- Generated by IcoMoon.io -->
<svg version="1.1" xmlns="http://www.w3.org/2000/svg" width="768" height="768" viewBox="0 0 768 768">
<title></title>
<g id="icomoon-ignore">
</g>
<path fill="#000" d="M655.663 623.153c-32.878 32.611-69.918 48.847-108.127 48.847-43.526 0-88.578-21.050-130.778-62.915l-316.665-315.197c-6.423-6.361-27.952-29.995-34.374-65.856-4.443-24.733-2.416-61.461 32.41-96.022 35.621-35.397 71.368-38.492 94.97-34.824 23.883 3.668 48.373 16.484 67.159 35.149l318.053 316.544c9.182 9.101 30.757 30.475 30.757 60.176 0 18.217-7.982 35.365-23.711 50.967-18.956 18.851-43.042 24.191-67.798 14.951-13.111-4.876-26.362-13.914-39.394-26.853l-317.569-315.027c-9.135-9.070-9.135-23.758-0.016-32.827 9.135-9.085 23.945-9.070 33.080-0.016l317.553 315.011c10.32 10.246 18.083 14.487 22.776 16.236 7.483 2.801 12.284 1.656 18.286-4.319 6.656-6.593 10.024-12.676 10.024-18.124 0-10.447-11.521-21.854-17.055-27.349l-318.083-316.559c-5.628-5.587-20.936-18.96-41.249-22.086-19.096-2.957-37.009 4.194-54.719 21.761-16.759 16.638-23.103 34.639-19.456 55.084 3.212 17.892 13.531 33.354 21.42 41.17l316.665 315.182c42.637 42.3 107.269 79.058 172.745 14.053 31.553-31.342 41.452-63.983 30.212-99.751-7.171-22.845-23.134-46.989-46.159-69.834l-276.289-273.037c-9.151-9.054-9.182-23.742-0.078-32.828 9.104-9.1 23.914-9.132 33.080-0.077l276.351 273.083c28.373 28.168 48.358 58.907 57.774 88.887 11.458 36.465 13.485 91.486-41.794 146.401z"></path>
</svg>
