<svg viewBox="0 0 32 32" version="1.1" xmlns="http://www.w3.org/2000/svg">
    <g id="Page-1" stroke="none" stroke-width="1" fill="none" fill-rule="evenodd">
        <g id="12.0-PreSchool---Audio-and-Annotation-tools" transform="translate(-800.000000, -375.000000)" fill="currentColor" fill-rule="nonzero">
            <g id="annotation-tools" transform="translate(48.000000, 342.000000)">
                <g id="annotation-tools-open" transform="translate(376.000000, 22.000000)">
                    <g id="annotation-tools-icon" transform="translate(368.000000, 3.000000)">
                        <g id="monitor-edit" transform="translate(8.000000, 8.000000)">
                            <path d="M26.9333333,13.7333333 L24.9333333,15.7333333 L29.7333333,20.5333333 L31.7333333,18.5333333 C32.1333333,18.1333333 32.1333333,17.3333333 31.6,16.9333333 L28.5333333,13.8666667 C28.1333333,13.4666667 27.3333333,13.3333333 26.9333333,13.7333333 Z" id="Path"></path>
                            <g id="Group">
                                <polygon id="Path" points="16.2666667 24.4 19.3333333 27.4666667 19.6 27.8666667 21.0666667 29.2 29.0666667 21.2 24.2666667 16.4"></polygon>
                                <path d="M5.6,20.9333333 L5.6,23.2 L14.6666667,23.2 L14.9333333,22.9333333 L16.9333333,20.9333333 L14,20.9333333 L14,18.6666667 L19.3333333,18.6666667 L22.9333333,15.0666667 L23.3333333,14.6666667 L23.3333333,2.26666667 C23.3333333,0.933333333 22.2666667,0 21.0666667,0 L2.4,0 C1.06666667,0 0,1.06666667 0,2.26666667 L0,16.2666667 C0,17.6 1.06666667,18.5333333 2.26666667,18.5333333 L9.33333333,18.5333333 L9.33333333,20.8 L5.6,20.8 L5.6,20.9333333 Z M2.66666667,16 L2.66666667,2.66666667 L20.5333333,2.66666667 L20.5333333,16 L2.66666667,16 Z" id="Shape"></path>
                            </g>
                            <polygon id="Path" points="15.7333333 25.0666667 15.6 25.0666667 14.4 31.2 20.5333333 29.8666667 20.5333333 29.8666667"></polygon>
                        </g>
                    </g>
                </g>
            </g>
        </g>
    </g>
</svg>