<svg viewBox="0 0 20 20" version="1.1" xmlns="http://www.w3.org/2000/svg">
  <path d="M9.7293316,12 C8.6293316,12 7.7293316,11.1 7.7293316,10 C7.7293316,8.9 8.6293316,8 9.7293316,8 C10.8293316,8 11.7293316,8.9 11.7293316,10 C11.7293316,11.1 10.8293316,12 9.7293316,12 L9.7293316,12 Z M9.7293316,6 C7.5193316,6 5.7293316,7.79 5.7293316,10 C5.7293316,12.21 7.5193316,14 9.7293316,14 C11.9393316,14 13.7293316,12.21 13.7293316,10 C13.7293316,7.79 11.9393316,6 9.7293316,6 L9.7293316,6 Z M15.1793316,9.27 C15.2193316,9.58 15.2293316,9.79 15.2293316,10 C15.2293316,10.21 15.2093316,10.43 15.1793316,10.73 L15.0393316,11.86 L15.9293316,12.56 L17.0093316,13.4 L16.3093316,14.61 L15.0393316,14.1 L13.9993316,13.68 L13.0993316,14.36 C12.6693316,14.68 12.2593316,14.92 11.8493316,15.09 L10.7893316,15.52 L10.6293316,16.65 L10.4293316,18 L9.0293316,18 L8.8393316,16.65 L8.6793316,15.52 L7.6193316,15.09 C7.1893316,14.91 6.7893316,14.68 6.3893316,14.38 L5.4793316,13.68 L4.4193316,14.11 L3.1493316,14.62 L2.4493316,13.41 L3.5293316,12.57 L4.4193316,11.87 L4.2793316,10.74 C4.2493316,10.43 4.2293316,10.2 4.2293316,10 C4.2293316,9.8 4.2493316,9.57 4.2793316,9.27 L4.4193316,8.14 L3.5293316,7.44 L2.4493316,6.6 L3.1493316,5.39 L4.4193316,5.9 L5.4593316,6.32 L6.3593316,5.64 C6.7893316,5.32 7.1993316,5.08 7.6093316,4.91 L8.6693316,4.48 L8.8293316,3.35 L9.0293316,2 L10.4193316,2 L10.6093316,3.35 L10.7693316,4.48 L11.8293316,4.91 C12.2593316,5.09 12.6593316,5.32 13.0593316,5.62 L13.9693316,6.32 L15.0293316,5.89 L16.2993316,5.38 L16.9993316,6.59 L15.9293316,7.44 L15.0393316,8.14 L15.1793316,9.27 Z M17.1593316,10.98 C17.1993316,10.66 17.2293316,10.34 17.2293316,10 C17.2293316,9.66 17.1993316,9.34 17.1593316,9.02 L19.2693316,7.37 C19.4593316,7.22 19.5093316,6.95 19.3893316,6.73 L17.3893316,3.27 C17.2993316,3.11 17.1293316,3.02 16.9493316,3.02 C16.8893316,3.02 16.8293316,3.03 16.7793316,3.05 L14.2893316,4.05 C13.7693316,3.65 13.2093316,3.32 12.5993316,3.07 L12.2193316,0.42 C12.1893316,0.18 11.9793316,0 11.7293316,0 L7.7293316,0 C7.4793316,0 7.2693316,0.18 7.2393316,0.42 L6.8593316,3.07 C6.2493316,3.32 5.6893316,3.66 5.1693316,4.05 L2.6793316,3.05 C2.6193316,3.03 2.5593316,3.02 2.4993316,3.02 C2.3293316,3.02 2.1593316,3.11 2.0693316,3.27 L0.0693316039,6.73 C-0.0606683961,6.95 -0.000668396069,7.22 0.189331604,7.37 L2.2993316,9.02 C2.2593316,9.34 2.2293316,9.67 2.2293316,10 C2.2293316,10.33 2.2593316,10.66 2.2993316,10.98 L0.189331604,12.63 C-0.000668396069,12.78 -0.0506683961,13.05 0.0693316039,13.27 L2.0693316,16.73 C2.1593316,16.89 2.3293316,16.98 2.5093316,16.98 C2.5693316,16.98 2.6293316,16.97 2.6793316,16.95 L5.1693316,15.95 C5.6893316,16.35 6.2493316,16.68 6.8593316,16.93 L7.2393316,19.58 C7.2693316,19.82 7.4793316,20 7.7293316,20 L11.7293316,20 C11.9793316,20 12.1893316,19.82 12.2193316,19.58 L12.5993316,16.93 C13.2093316,16.68 13.7693316,16.34 14.2893316,15.95 L16.7793316,16.95 C16.8393316,16.97 16.8993316,16.98 16.9593316,16.98 C17.1293316,16.98 17.2993316,16.89 17.3893316,16.73 L19.3893316,13.27 C19.5093316,13.05 19.4593316,12.78 19.2693316,12.63 L17.1593316,10.98 Z" stroke="none" fill="currentColor"></path>
</svg>