<svg version="1.1" xmlns="http://www.w3.org/2000/svg" xmlns:xlink="http://www.w3.org/1999/xlink" viewBox="0 0 283.46 283.46">
  <linearGradient id="SVGID_1" gradientUnits="userSpaceOnUse" x1="214.4273" y1="234.817" x2="114.6615" y2="176.718">
    <stop offset="0" style="stop-color:#FF4F6F"/>
    <stop offset="0.5051" style="stop-color:#F13153"/>
    <stop offset="1" style="stop-color:#E5004F"/>
  </linearGradient>
  <path fill="url(#SVGID_1)" d="M205.6,238.22c-63.31,0-86.5-55.98-87.46-58.36c-2.45-6.1,0.51-13.04,6.62-15.48 c6.09-2.44,13.01,0.5,15.47,6.58c0.77,1.88,18.47,43.46,65.37,43.46c6.58,0,11.91,5.33,11.91,11.91S212.18,238.22,205.6,238.22z"/>

  <linearGradient id="SVGID_2" gradientUnits="userSpaceOnUse" x1="69.1293" y1="201.6189" x2="198.7787" y2="55.163">
    <stop offset="0.15" style="stop-color:#F02E51"/>
    <stop offset="1" style="stop-color:#E5004F"/>
  </linearGradient>
  <path fill="url(#SVGID_2)" d="M127.01,244.17c-1.85,0-3.73-0.43-5.49-1.35c-25.86-13.46-45.43-34.29-56.6-60.24 c-10.17-23.63-12.53-49.87-6.66-73.89c10.47-42.82,44.09-69.42,87.72-69.42c56.6,0,82.37,40.5,82.37,78.13 c0,22.15-10.28,42.78-28.21,56.61c-19.88,15.33-46.84,20.05-73.98,12.92c-6.36-1.67-10.16-8.18-8.49-14.54 c1.67-6.36,8.18-10.16,14.54-8.49c20.23,5.31,39.19,2.2,53.39-8.75c12.04-9.29,18.94-23.05,18.94-37.76 c0-27.04-18.11-54.32-58.56-54.32c-32.59,0-56.74,19.17-64.59,51.27c-8.44,34.5,3.96,82.81,51.12,107.35 c5.83,3.04,8.1,10.22,5.07,16.06C135.46,241.84,131.31,244.17,127.01,244.17z"/>

  <linearGradient id="SVGID_3" gradientUnits="userSpaceOnUse" x1="141.6747" y1="218.628" x2="141.6747" y2="180.4199">
    <stop offset="0.4913" style="stop-color:#F1F2F2;stop-opacity:0"/>
    <stop offset="0.5548" style="stop-color:#CDCECE;stop-opacity:0.1357"/>
    <stop offset="0.6534" style="stop-color:#9B9B9C;stop-opacity:0.3463"/>
    <stop offset="0.7465" style="stop-color:#747475;stop-opacity:0.545"/>
    <stop offset="0.8313" style="stop-color:#585759;stop-opacity:0.7261"/>
    <stop offset="0.905" style="stop-color:#474648;stop-opacity:0.8837"/>
    <stop offset="0.9595" style="stop-color:#414042"/>
  </linearGradient>
  <path fill="url(#SVGID_3)" style="opacity:0.8" d="M118.38,180.42c0,0,2.56,5.32,7.52,6.44c5.01,1.14,11.2,3.27,26.75,3.3c0,0,4.85,5.92,12.32,11.32 l-16.89,17.14C148.08,218.63,129.47,205.13,118.38,180.42z"/>
</svg>
