<svg viewBox="0 0 20 18" xmlns="http://www.w3.org/2000/svg">
<path fill="currentColor" transform="translate(11.039465, 6.811319) rotate(52.000000) translate(-13.039465, -10.811319)" d="M11.8813822,1.35791764 C12.3036269,0.318546048 13.7753039,0.318546048 14.1975486,1.35791764 L14.1975486,1.35791764 L20.6975486,17.3579176 C21.0938783,18.3334985 20.1801995,19.331983 19.1733631,19.0235747 L19.1733631,19.0235747 L14.2347222,17.5103889 L14.235561,19.7942493 C14.235561,20.4846052 13.675917,21.0442493 12.985561,21.0442493 C12.3383523,21.0442493 11.8060271,20.5523746 11.7420146,19.9220545 L11.735561,19.7942493 L11.7347222,17.5433889 L6.90556769,19.0235747 C5.9761802,19.3082593 5.12616964,18.4793784 5.31262218,17.582853 L5.34139623,17.4705106 L5.38138217,17.3579176 Z M13.0394654,5.15038894 L8.68746539,15.8623889 L11.7347222,14.9283889 L11.735561,11.9964698 C11.735561,11.3061139 12.2952051,10.7464698 12.985561,10.7464698 C13.6327697,10.7464698 14.1650949,11.2383445 14.2291074,11.8686646 L14.235561,11.9964698 L14.2347222,14.8953889 L17.3904654,15.8623889 L13.0394654,5.15038894 Z"></path>
</svg>