<!-- Generated by IcoMoon.io -->
<svg version="1.1" xmlns="http://www.w3.org/2000/svg" width="768" height="768" viewBox="0 0 768 768">
<title></title>
<g id="icomoon-ignore">
</g>
<path fill="#000" d="M42.166 420.623c-4.973-6.861-4.973-16.219-1.105-23.704 30.361-52.444 159.625-256.467 342.937-254.907 100.158 0.852 216.906 63.082 341.419 244.925 5.521 7.486 5.521 17.468 1.106 25.574-31.732 54.362-160.189 215.519-342.525 213.464-100.144-1.129-217.292-23.339-341.834-205.354zM384.002 556.85c95.464 0 172.859-77.392 172.859-172.859s-77.392-172.858-172.859-172.858c-95.464 0-172.858 77.392-172.858 172.858s77.392 172.859 172.858 172.859z"></path>
<path fill="#000" d="M384.494 280.28c-12.347 0-24.201 2.476-35.557 6.436 16.793 5.446 29.137 21.286 29.137 39.606 0 22.772-18.768 41.583-41.487 41.583-21.237 0-39.017-16.338-41.487-37.131-9.385 15.347-14.815 33.662-14.815 52.969 0 57.427 46.424 103.959 103.71 103.959s103.71-46.537 103.71-103.959c0.493-56.93-45.931-103.468-103.22-103.468z"></path>
</svg>
