<svg viewBox="0 0 24 24" xmlns="http://www.w3.org/2000/svg">
<g stroke="none" fill="currentColor">
    <g transform="translate(8.000000, 7.000000)">
        <rect x="2.23214286" y="7.14285714" width="1.78571429" height="1.78571429"></rect>
        <path d="M3.125,4.4408921e-16 C1.40178571,4.4408921e-16 8.8817842e-16,1.20178571 8.8817842e-16,2.67857143 L1.78571429,2.67857143 C1.78571429,2.20267857 2.41160714,1.78571429 3.125,1.78571429 C3.83839286,1.78571429 4.46428571,2.20267857 4.46428571,2.67857143 C4.46428571,2.97589286 4.20714286,3.275 3.80892857,3.44017857 C2.85089286,3.8375 2.23214286,4.81071429 2.23214286,5.92053571 L2.23214286,6.25 L4.01785714,6.25 L4.01785714,5.92053571 C4.01785714,5.54732143 4.21339286,5.20535714 4.49285714,5.08928571 C5.57678571,4.64017857 6.25,3.71696429 6.25,2.67857143 C6.25,1.20178571 4.84821429,4.4408921e-16 3.125,4.4408921e-16 Z"></path>
    </g>
    <path d="M18.159399,15.7256565 L20.5918433,18.2445263 C21.1500165,18.8225316 21.133166,19.7443333 20.5568312,20.3008933 C19.9793213,20.8585881 19.0601895,20.8436984 18.500495,20.2641178 L16.175006,17.8560035 C14.7991007,18.8896181 13.0896414,19.5019667 11.2373959,19.5019667 C6.68800779,19.5019667 3,15.8078756 3,11.2509833 C3,6.69409106 6.68800779,3 11.2373959,3 C15.7867841,3 19.4747919,6.69409106 19.4747919,11.2509833 C19.4747919,12.9003196 18.9916522,14.4366265 18.159399,15.7256565 Z M16.8,11.3 C16.8,8.26243388 14.3375661,5.8 11.3,5.8 C8.26243387,5.8 5.8,8.26243388 5.8,11.3 C5.8,14.3375661 8.26243387,16.8 11.3,16.8 C14.3375661,16.8 16.8,14.3375661 16.8,11.3 Z"></path>
</g>
</svg>