<?xml version="1.0" encoding="UTF-8"?>
<svg width="22px" height="31px" viewBox="0 0 22 31" version="1.1" xmlns="http://www.w3.org/2000/svg" xmlns:xlink="http://www.w3.org/1999/xlink">
    <!-- Generator: Sketch 60 (88103) - https://sketch.com -->
    <title>notepad</title>
    <desc>Created with Sketch.</desc>
    <defs>
        <polygon id="path-1" points="0 8 9 8 16 28 22 28 22 8 22 0 0 0"></polygon>
        <path d="M4.5,8 C4.94513452,6.48820934 5.89237202,5.38610239 7,4.5 C12,0.5 20.5,21.5 16,28 C16,31.5 20.5,32.5 21.5,28 C24,17.5 16,-1.5 7,0.5 C3.60624486,1.25416781 1.49222015,3.76796498 0.657925894,8.0413915 C0.5,8 4.5,8 4.5,8 Z" id="path-3"></path>
        <filter x="-32.8%" y="-16.3%" width="165.7%" height="145.7%" filterUnits="objectBoundingBox" id="filter-4">
            <feOffset dx="0" dy="2" in="SourceAlpha" result="shadowOffsetOuter1"></feOffset>
            <feGaussianBlur stdDeviation="2" in="shadowOffsetOuter1" result="shadowBlurOuter1"></feGaussianBlur>
            <feColorMatrix values="0 0 0 0 0   0 0 0 0 0   0 0 0 0 0  0 0 0 0.309413243 0" type="matrix" in="shadowBlurOuter1"></feColorMatrix>
        </filter>
        <radialGradient cx="78.3790809%" cy="28.4878393%" fx="78.3790809%" fy="28.4878393%" r="143.862334%" gradientTransform="translate(0.783791,0.284878),scale(1.000000,0.695109),rotate(90.000000),scale(1.000000,0.605000),translate(-0.783791,-0.284878)" id="radialGradient-5">
            <stop stop-color="#D8D8D8" offset="0%"></stop>
            <stop stop-color="#000000" offset="100%"></stop>
        </radialGradient>
    </defs>
    <g id="notepad" stroke="none" stroke-width="1" fill="none" fill-rule="evenodd">
        <g id="Path" transform="translate(-0.000000, 0.000000)">
            <mask id="mask-2" fill="white">
                <use xlink:href="#path-1"></use>
            </mask>
            <g id="Mask"></g>
            <g mask="url(#mask-2)" fill="black" fill-opacity="1">
                <use filter="url(#filter-4)" xlink:href="#path-3"></use>
            </g>
        </g>
        <path d="M4.5,8 C4.94513452,6.48820934 5.89237202,5.38610239 7,4.5 C12,0.5 20.5,21.5 16,28 C16,31.5 20.5,32.5 21.5,28 C24,17.5 16,-1.5 7,0.5 C3.60624486,1.25416781 1.49222015,3.76796498 0.657925894,8.0413915 C0.5,8 4.5,8 4.5,8 Z" id="Path" fill="url(#radialGradient-5)"></path>
    </g>
</svg>