<svg viewBox="0 0 24 24" version="1.1" xmlns="http://www.w3.org/2000/svg">
    <g fill="currentColor" stroke="none">
        <path d="M2.3999,0.2002 L-0.0001,0.2002 L-0.0001,8.5992 C-0.0001,9.9202 1.0799,11.0002 2.3999,11.0002 L10.7999,11.0002 L10.7999,8.5992 L2.3999,8.5992 L2.3999,0.2002 Z" transform="translate(0.000000, 13.000000)"></path>
        <path d="M2.3999,2.3999 L10.7999,2.3999 L10.7999,-0.0001 L2.3999,-0.0001 C1.0799,-0.0001 -0.0001,1.0799 -0.0001,2.3999 L-0.0001,10.7999 L2.3999,10.7999 L2.3999,2.3999 Z"></path>
        <path d="M21.5996,21.5996 L13.2006,21.5996 L13.2006,23.9996 L21.5996,23.9996 C22.9196,23.9996 23.9996,22.9196 23.9996,21.5996 L23.9996,13.2006 L21.5996,13.2006 L21.5996,21.5996 Z"></path>
        <path d="M21.5996,0 L13.2006,0 L13.2006,2.4 L21.5996,2.4 L21.5996,10.8 L23.9996,10.8 L23.9996,2.4 C23.9996,1.08 22.9196,0 21.5996,0"></path>
        <path d="M6.6406,12.7261 L10.7466,8.6201 L14.8536,12.7261 L6.6406,12.7261 Z M16.3706,11.8171 L8.7066,4.1531 L7.4976,5.3621 L9.5376,7.4021 L5.1226,11.8171 C4.6176,12.3231 4.6176,13.1381 5.1226,13.6351 L9.8386,18.3511 C10.0866,18.5991 10.4216,18.7271 10.7466,18.7271 C11.0726,18.7271 11.4076,18.5991 11.6556,18.3511 L16.3706,13.6351 C16.8766,13.1381 16.8766,12.3231 16.3706,11.8171 L16.3706,11.8171 Z"></path>
        <path d="M18.4629,18.7275 C19.4059,18.7275 20.1779,17.9565 20.1779,17.0125 C20.1779,15.8735 18.4629,14.0115 18.4629,14.0115 C18.4629,14.0115 16.7479,15.8735 16.7479,17.0125 C16.7479,17.9565 17.5199,18.7275 18.4629,18.7275"></path>
    </g>
</svg>