<?xml version="1.0" encoding="UTF-8"?>
<svg id="Capa_1" data-name="Capa 1" xmlns="http://www.w3.org/2000/svg" viewBox="0 0 120 120">
  <defs>
    <style>
      .cls-1 {
        fill: #003fba;
        stroke-width: 0px;
      }
    </style>
  </defs>
  <path class="cls-1" d="M92.04,13.92c7.75,0,14.05,6.3,14.05,14.05v64.08c0,7.75-6.3,14.05-14.05,14.05H27.96c-7.75,0-14.05-6.3-14.05-14.05V27.96c0-7.75,6.3-14.05,14.05-14.05h64.08M92.04,5H27.96C15.28,5,5,15.28,5,27.96v64.08c0,12.68,10.28,22.96,22.96,22.96h64.08c12.68,0,22.96-10.28,22.96-22.96V27.96c0-12.68-10.28-22.96-22.96-22.96h0Z"/>
  <g>
    <path class="cls-1" d="M86.92,65.52c-1.7,0-3.07,1.37-3.07,3.07v10.32c0,1.32-1.07,2.4-2.4,2.4h-42.9c-1.32,0-2.4-1.07-2.4-2.4v-10.32c0-1.7-1.37-3.07-3.07-3.07s-3.07,1.37-3.07,3.07v10.32c0,4.72,3.82,8.54,8.54,8.54h42.9c4.72,0,8.54-3.82,8.54-8.54v-10.32c0-1.7-1.37-3.07-3.07-3.07Z"/>
    <path class="cls-1" d="M57.77,75.45c.57.63,1.38.99,2.23.99s1.66-.36,2.23-.99l13.35-14.79c.79-.88,1-2.14.51-3.23-.48-1.08-1.56-1.78-2.74-1.78h-6.3v-7.95c0-1.66-1.34-3-3-3h-8.1c-1.66,0-3,1.34-3,3v7.95h-6.3c-1.19,0-2.26.7-2.74,1.78-.48,1.08-.28,2.35.51,3.23l13.35,14.79Z"/>
    <rect class="cls-1" x="52.95" y="32.35" width="14.09" height="8.73" rx="3" ry="3"/>
  </g>
</svg>