<?xml version="1.0" encoding="UTF-8"?>
<svg id="Capa_1" data-name="Capa 1" xmlns="http://www.w3.org/2000/svg" viewBox="0 0 120 120">
  <defs>
    <style>
      .cls-1 {
        fill: #003fba;
        stroke-width: 0px;
      }
    </style>
  </defs>
  <path class="cls-1" d="M56.48,82.45c.9,1,2.18,1.57,3.52,1.57s2.62-.57,3.52-1.57l21.13-23.41c1.26-1.39,1.57-3.39.81-5.11-.76-1.71-2.46-2.82-4.34-2.82h-9.98v-25.6c0-2.62-2.12-4.75-4.74-4.75h-12.81c-2.62,0-4.75,2.12-4.75,4.75v25.6h-9.98c-1.88,0-3.57,1.1-4.34,2.82-.76,1.71-.44,3.72.81,5.11l21.13,23.41Z"/>
  <path class="cls-1" d="M98.99,89.93H21.01c-2.56,0-4.65,2.08-4.65,4.65s2.08,4.65,4.65,4.65h77.99c2.56,0,4.65-2.08,4.65-4.65s-2.08-4.65-4.65-4.65Z"/>
</svg>