<?xml version="1.0" encoding="UTF-8"?>
<svg id="Capa_1" data-name="Capa 1" xmlns="http://www.w3.org/2000/svg" version="1.1" viewBox="0 0 136.1 142.6">
  <defs>
    <style>
      .cls-1 {
        fill: #ce6a09;
      }

      .cls-1, .cls-2, .cls-3, .cls-4, .cls-5, .cls-6, .cls-7 {
        stroke-width: 0px;
      }

      .cls-2 {
        fill: #ff9936;
      }

      .cls-8, .cls-4 {
        isolation: isolate;
      }

      .cls-3, .cls-4 {
        fill: #ffe892;
      }

      .cls-4 {
        mix-blend-mode: overlay;
        opacity: .3;
      }

      .cls-5 {
        fill: #de7f16;
      }

      .cls-6 {
        fill: #ffb036;
      }

      .cls-7 {
        fill: #efe3c6;
      }
    </style>
  </defs>
  <g class="cls-8">
    <g id="Capa_2" data-name="Capa 2">
      <g id="tipografía_inflate" data-name="tipografía inflate">
        <g>
          <circle class="cls-5" cx="68" cy="74.6" r="68"/>
          <path class="cls-6" d="M67.9,135.6C30.4,135.4.2,104.8.5,67.4.7,29.9,31.2-.2,68.7,0s67.6,30.8,67.4,68.2c-.2,37.5-30.8,67.6-68.2,67.4h0Z"/>
          <path class="cls-4" d="M25.7,16.6c-12.5,10.3.5,23.2,9.9,15,2-1.8,14.4-12.1,30.5-12.6,17.7-.6,28.2,7.5,30.9,9.5,6.8,5.2,18.7-5.8,9.7-14-1.2-1.1-17.3-12.6-39.2-12.3-23.3.3-38.4,11.7-41.8,14.5h0Z"/>
          <path class="cls-2" d="M68,114.3c-26.3-.2-47.5-21.6-47.4-48,.2-26.3,21.6-47.5,48-47.4,26.3.2,47.5,21.6,47.4,48-.2,26.3-21.6,47.6-48,47.4h0Z"/>
          <path class="cls-5" d="M68.6,24.9c25.3.2,45.9,20,47.3,45,0-1,.1-2,.1-3,.2-26.3-21-47.8-47.4-48s-47.8,21-48,47.4c0,1,0,2,0,3,1.7-24.9,22.5-44.6,47.9-44.4Z"/>
          <path class="cls-3" d="M68.7,2.5c37,.2,66.9,30.1,67.4,67,0-.4,0-.8,0-1.2C136.3,30.8,106.2.2,68.7,0,31.2-.2.7,29.9.5,67.4v1.2C1.4,31.8,31.6,2.3,68.7,2.5Z"/>
          <path class="cls-3" d="M68,114.3c-25.8-.2-46.6-20.7-47.3-46.2,0,.6,0,1.2,0,1.7-.2,26.3,21,47.8,47.4,48,26.3.2,47.8-21.1,48-47.4,0-.6,0-1.2,0-1.7-1.1,25.5-22.2,45.8-47.9,45.6h0Z"/>
          <path class="cls-2" d="M68,114.1c-26.5-.2-47.8-20.7-47.6-45.8.2-25.1,21.7-45.4,48.2-45.2,26.5.2,47.8,20.7,47.6,45.8-.2,25.2-21.7,45.4-48.2,45.2Z"/>
          <polygon class="cls-1" points="67.2 33.7 78.7 55.8 103.4 58.8 86 76.6 90.8 101 68.5 89.9 46.7 102 50.4 77.4 32.1 60.4 56.7 56.3 67.2 33.7"/>
          <polygon class="cls-7" points="67.9 30 79.4 52.1 104.1 55.1 86.7 72.9 91.5 97.3 69.2 86.2 47.4 98.3 51 73.7 32.8 56.7 57.3 52.6 67.9 30"/>
        </g>
      </g>
    </g>
  </g>
</svg>