<?xml version="1.0" encoding="UTF-8"?>
<svg id="Capa_1" data-name="Capa 1" xmlns="http://www.w3.org/2000/svg" version="1.1" viewBox="0 0 93.48 140.22">
  <defs>
    <style>
      .cls-1 {
        fill: #ccc;
      }

      .cls-1, .cls-2, .cls-3, .cls-4, .cls-5, .cls-6, .cls-7, .cls-8 {
        stroke-width: 0px;
      }

      .cls-2 {
        fill: #ff9936;
      }

      .cls-9, .cls-8 {
        isolation: isolate;
      }

      .cls-3 {
        fill: #473a68;
      }

      .cls-4 {
        fill: #ff9c05;
      }

      .cls-5 {
        fill: #de7f16;
      }

      .cls-6 {
        fill: #ffb036;
      }

      .cls-7, .cls-8 {
        fill: #f8f8f8;
      }

      .cls-8 {
        mix-blend-mode: overlay;
        opacity: .3;
      }
    </style>
  </defs>
  <g class="cls-9">
    <g id="Capa_2" data-name="Capa 2">
      <g id="tipografía_inflate" data-name="tipografía inflate">
        <g>
          <path class="cls-6" d="M93.24,58.56l-46.5-4.03L.24,58.56c0,22.1-1.73,68.78,4.03,73.97,5.76,5.19,19.21,7.69,42.46,7.69s36.7-2.5,42.46-7.69,4.03-51.88,4.03-73.97h.02Z"/>
          <path class="cls-2" d="M79.03,126.89c-4.06,2.47-8.87,4.59-13.56,5.51-11.45,2.25-22.91,1.84-34.22-1.29-12.14-3.35-23.06-10.02-30.85-19.81.51,10.79,1.62,19.19,3.88,21.23,5.76,5.19,19.21,7.69,42.46,7.69s36.7-2.5,42.46-7.69c2.06-1.85,3.16-9.01,3.73-18.45-3.91,5.09-7.98,9.21-13.9,12.81Z"/>
          <ellipse class="cls-4" cx="46.74" cy="58.56" rx="46.5" ry="10.13"/>
          <ellipse class="cls-5" cx="46.74" cy="58.56" rx="31.85" ry="4.96"/>
          <path class="cls-7" d="M78.59,58.56s-.19,2.04-4.77,2.04-4.75-2.04-4.75-2.04c0-43.95-12.74-49.04-22.33-49.04s-22.33,5.08-22.33,49.04c0,0-.19,2.04-4.86,2.04s-4.66-2.04-4.66-2.04c0-17.24,1.83-30.14,5.61-39.43C26.92,3.32,38.31,0,46.74,0s19.82,3.32,26.24,19.13c3.77,9.29,5.61,22.19,5.61,39.43Z"/>
          <g>
            <path class="cls-1" d="M18.5,56.12c-1.39,0-2.56-.32-3.56-.83-.02,1.09-.04,2.15-.04,3.27,0,0,0,2.04,4.66,2.04s4.86-2.04,4.86-2.04c0-1.87.03-3.65.08-5.39-1.24,1.73-3.21,2.95-5.99,2.95h-.01Z"/>
            <path class="cls-1" d="M69.03,54.41c.03,1.35.04,2.73.04,4.15,0,0,.18,2.04,4.75,2.04s4.77-2.04,4.77-2.04c0-2-.03-3.93-.08-5.82-2.27,2.91-6.33,3.21-9.48,1.66v.01Z"/>
          </g>
          <path class="cls-3" d="M52.28,102.6c3.1-1.58,5.23-4.79,5.23-8.51,0-5.27-4.27-9.55-9.55-9.55s-9.55,4.27-9.55,9.55c0,3.72,2.13,6.93,5.23,8.51-2.06,4.85-6.36,15.51-5.23,18.55,1.24,3.32,6.32,3.45,9.55,3.45s8.31-.13,9.55-3.45c1.13-3.03-3.16-13.7-5.23-18.55Z"/>
          <path class="cls-8" d="M19.85,90c0,10.06-3.21,18.22-7.17,18.22s-7.17-8.16-7.17-18.22,3.21-18.22,7.17-18.22,7.17,8.16,7.17,18.22Z"/>
        </g>
      </g>
    </g>
  </g>
</svg>