<?xml version="1.0" encoding="UTF-8"?>
<svg id="Capa_1" data-name="Capa 1" xmlns="http://www.w3.org/2000/svg" version="1.1" viewBox="0 0 93.48 142.58">
  <defs>
    <style>
      .cls-1 {
        fill: #ccc;
      }

      .cls-1, .cls-2, .cls-3, .cls-4, .cls-5, .cls-6, .cls-7, .cls-8 {
        stroke-width: 0px;
      }

      .cls-2, .cls-3 {
        fill: #aeaeae;
      }

      .cls-2, .cls-9, .cls-6, .cls-8 {
        isolation: isolate;
      }

      .cls-2, .cls-6 {
        mix-blend-mode: multiply;
      }

      .cls-2, .cls-6, .cls-8 {
        opacity: .3;
      }

      .cls-4 {
        fill: #473a68;
      }

      .cls-5 {
        fill: #e1e1e1;
      }

      .cls-6 {
        fill: #949494;
      }

      .cls-7, .cls-8 {
        fill: #f8f8f8;
      }

      .cls-8 {
        mix-blend-mode: overlay;
      }
    </style>
  </defs>
  <g class="cls-9">
    <g id="Capa_2" data-name="Capa 2">
      <g id="tipografía_inflate" data-name="tipografía inflate">
        <g>
          <path class="cls-5" d="M93.24,60.92l-46.5-4.03L.24,60.92c0,22.1-1.73,68.78,4.03,73.97,5.76,5.19,19.21,7.69,42.46,7.69s36.7-2.5,42.46-7.69,4.03-51.88,4.03-73.97h.02Z"/>
          <path class="cls-2" d="M79.03,129.25c-4.06,2.47-8.87,4.59-13.56,5.51-11.45,2.25-22.91,1.84-34.22-1.29-12.14-3.35-23.06-10.02-30.85-19.81.51,10.79,1.62,19.19,3.88,21.23,5.76,5.19,19.21,7.69,42.46,7.69s36.7-2.5,42.46-7.69c2.06-1.85,3.16-9.01,3.73-18.45-3.91,5.09-7.98,9.21-13.9,12.81Z"/>
          <ellipse class="cls-3" cx="46.74" cy="60.92" rx="46.5" ry="10.13"/>
          <ellipse class="cls-6" cx="46.74" cy="60.92" rx="31.85" ry="4.96"/>
          <path class="cls-7" d="M77.41,34.99s-.19,2.04-4.77,2.04-4.75-2.04-4.75-2.04c-1.98-21.66-11.57-25.46-21.15-25.46s-22.33,5.08-22.33,49.04c0,0-.19,2.04-4.86,2.04s-4.66-2.04-4.66-2.04c0-17.24,1.83-30.14,5.61-39.43C26.92,3.32,38.31,0,46.74,0s14.46-.73,25.07,15.68c2.35,3.63,4.71,11.79,5.61,19.3l-.01.01Z"/>
          <path class="cls-1" d="M18.5,58.48c-1.39,0-2.56-.32-3.56-.83-.02,1.09-.04,2.15-.04,3.27,0,0,0,2.04,4.66,2.04s4.86-2.04,4.86-2.04c0-1.87.03-3.65.08-5.39-1.24,1.73-3.21,2.95-5.99,2.95h-.01Z"/>
          <path class="cls-5" d="M67.53,32.87c.26,1.32.51,2.68.75,4.09,0,0,.53,1.98,5.03,1.19s4.35-2.82,4.35-2.82c-.34-1.97-.7-3.87-1.07-5.72-1.74,3.26-5.69,4.24-9.06,3.26Z"/>
          <path class="cls-4" d="M52.28,104.97c3.1-1.58,5.23-4.79,5.23-8.51,0-5.27-4.27-9.55-9.55-9.55s-9.55,4.27-9.55,9.55c0,3.72,2.13,6.93,5.23,8.51-2.06,4.85-6.36,15.51-5.23,18.55,1.24,3.32,6.32,3.45,9.55,3.45s8.31-.13,9.55-3.45c1.13-3.03-3.16-13.7-5.23-18.55Z"/>
          <path class="cls-8" d="M19.85,92.36c0,10.06-3.21,18.22-7.17,18.22s-7.17-8.16-7.17-18.22,3.21-18.22,7.17-18.22,7.17,8.16,7.17,18.22Z"/>
        </g>
      </g>
    </g>
  </g>
</svg>