<?xml version="1.0" encoding="UTF-8"?>
<svg id="Capa_2" data-name="Capa 2" xmlns="http://www.w3.org/2000/svg" xmlns:xlink="http://www.w3.org/1999/xlink" viewBox="0 0 136.1 142.58">
  <defs>
    <style>
      .cls-1 {
        fill: #7fe20c;
      }

      .cls-1, .cls-2, .cls-3, .cls-4 {
        stroke-width: 0px;
      }

      .cls-1, .cls-2, .cls-4 {
        isolation: isolate;
      }

      .cls-2 {
        fill: #46af09;
        filter: url(#drop-shadow-2);
      }

      .cls-5 {
        filter: url(#drop-shadow-3);
      }

      .cls-3 {
        fill: #fff;
      }

      .cls-4 {
        fill: #6c0;
      }
    </style>
    <filter id="drop-shadow-2" filterUnits="userSpaceOnUse">
      <feOffset dx="4" dy="4"/>
      <feGaussianBlur result="blur" stdDeviation="5"/>
      <feFlood flood-color="#000" flood-opacity=".35"/>
      <feComposite in2="blur" operator="in"/>
      <feComposite in="SourceGraphic"/>
    </filter>
    <filter id="drop-shadow-3" filterUnits="userSpaceOnUse">
      <feOffset dx="2.86" dy="2.86"/>
      <feGaussianBlur result="blur-2" stdDeviation="3.81"/>
      <feFlood flood-color="#000" flood-opacity=".3"/>
      <feComposite in2="blur-2" operator="in"/>
      <feComposite in="SourceGraphic"/>
    </filter>
  </defs>
  <circle class="cls-2" cx="68.05" cy="71.29" r="61.14"/>
  <g>
    <circle class="cls-4" cx="68.05" cy="71.29" r="52.35"/>
    <path class="cls-1" d="M120.4,71.29s-1.46,52.95-52.35,52.35c-51.01-.6-52.35-52.35-52.35-52.35h104.7Z"/>
    <g class="cls-5">
      <path class="cls-3" d="M78.68,53.78c0-5.15-3.69-8.17-10.18-8.17s-10.97,3.92-13.32,9.96l-13.21-7.61c4.59-11.3,15.22-17.35,27.08-17.35,12.65,0,25.07,7.61,25.07,22.05,0,16.79-18.8,21.71-18.8,31.56h-15.44c0-14.77,18.8-19.36,18.8-30.44ZM58.09,102.46c0-5.26,4.25-9.51,9.51-9.51s9.51,4.25,9.51,9.51-4.25,9.51-9.51,9.51-9.51-4.25-9.51-9.51Z"/>
    </g>
  </g>
</svg>