<svg viewBox="0 0 23 22" version="1.1" xmlns="http://www.w3.org/2000/svg">
  <path stroke="none" fill="currentColor" d="M14.072,13.609 L10.327,4.61 L6.566,13.609 L14.072,13.609 Z M0,22 L0,21.394 C0.84,21.298 1.47,20.982 1.891,20.445 C2.311,19.909 3.031,18.439 4.051,16.034 L10.858,0 L11.509,0 L19.65,18.522 C20.193,19.751 20.626,20.509 20.95,20.799 C21.275,21.09 21.819,21.289 22.585,21.394 L22.585,22 L14.276,22 L14.276,21.394 C15.231,21.309 15.847,21.205 16.124,21.085 C16.4,20.963 16.538,20.664 16.538,20.187 C16.538,20.027 16.485,19.749 16.378,19.346 C16.271,18.943 16.124,18.52 15.932,18.075 L14.624,14.933 L6.012,14.933 C5.164,17.071 4.657,18.375 4.491,18.845 C4.327,19.317 4.244,19.689 4.244,19.964 C4.244,20.516 4.468,20.897 4.914,21.107 C5.19,21.234 5.71,21.33 6.475,21.394 L6.475,22 L0,22 Z"></path>
</svg>