<svg viewBox="0 0 15 11" version="1.1" xmlns="http://www.w3.org/2000/svg">
    <g stroke="none" fill="currentColor" fill-rule="evenodd" transform="translate(-80, -18)">
        <g transform="translate(80.277757, 17.944465)">
            <path d="M12.4403383,-1.38159341 C10.7417966,0.828565768 9.04325494,3.0385422 7.34506758,5.24888412 C7.15319101,5.49851844 7.15531707,5.49851844 7.34949686,5.75071124 C8.1030066,6.72914618 11.506291,11.1540332 12.4548664,12.3879505 C12.4977419,12.4436887 12.5367196,12.5025337 12.6111315,12.6072485 L12.3467919,12.6072485 C10.7595138,12.6074313 8.83890234,12.6054211 7.25162425,12.6111315 C7.0880951,12.6116345 6.98196946,12.5615614 6.87832422,12.4261449 C5.15675025,10.1788878 3.4312785,7.93473739 1.70013727,5.69552122 C1.57895207,5.53872309 1.58284984,5.44716614 1.7036807,5.29292649 C2.44230804,4.34903099 3.16888774,3.39526708 3.8993652,2.44460989 C4.46542765,1.70813383 6.47543658,-0.909006041 6.92119969,-1.47534334 C6.97204786,-1.53985353 7.06630302,-1.60673944 7.14071499,-1.60710494 C8.81994501,-1.61350113 10.8326855,-1.61075991 12.5119156,-1.60911517 C12.5253806,-1.60911517 12.5392,-1.60162249 12.5951861,-1.58480963 C12.5328218,-1.50293835 12.4869344,-1.44208313 12.4403383,-1.38159341 Z" transform="translate(7.111132, 5.500000) rotate(-90.000000) translate(-7.111132, -5.500000) "></path>
        </g>
    </g>
</svg>