<svg viewBox="0 0 17 15" xmlns="http://www.w3.org/2000/svg">
<path transform="translate(-3, -5)" fill="currentColor" d="M17.9589032,17 C18.7873303,17 19.4589032,17.6715729 19.4589032,18.5 C19.4589032,19.2796961 18.8640151,19.9204487 18.1033632,19.9931334 L17.9589032,20 L10,20 C9.17157288,20 8.5,19.3284271 8.5,18.5 C8.5,17.7203039 9.09488808,17.0795513 9.85553999,17.0068666 L10,17 L17.9589032,17 Z M6,17 C6.82842712,17 7.5,17.6715729 7.5,18.5 C7.5,19.2796961 6.90511192,19.9204487 6.14446001,19.9931334 L6,20 L5,20 C4.17157288,20 3.5,19.3284271 3.5,18.5 C3.5,17.7203039 4.09488808,17.0795513 4.85553999,17.0068666 L5,17 L6,17 Z M17.9589032,11 C18.7873303,11 19.4589032,11.6715729 19.4589032,12.5 C19.4589032,13.2796961 18.8640151,13.9204487 18.1033632,13.9931334 L17.9589032,14 L10,14 C9.17157288,14 8.5,13.3284271 8.5,12.5 C8.5,11.7203039 9.09488808,11.0795513 9.85553999,11.0068666 L10,11 L17.9589032,11 Z M6,11 C6.82842712,11 7.5,11.6715729 7.5,12.5 C7.5,13.2796961 6.90511192,13.9204487 6.14446001,13.9931334 L6,14 L5,14 C4.17157288,14 3.5,13.3284271 3.5,12.5 C3.5,11.7203039 4.09488808,11.0795513 4.85553999,11.0068666 L5,11 L6,11 Z M17.9589032,5 C18.7873303,5 19.4589032,5.67157288 19.4589032,6.5 C19.4589032,7.27969612 18.8640151,7.92044868 18.1033632,7.99313342 L17.9589032,8 L10,8 C9.17157288,8 8.5,7.32842712 8.5,6.5 C8.5,5.72030388 9.09488808,5.07955132 9.85553999,5.00686658 L10,5 L17.9589032,5 Z M6,5 C6.82842712,5 7.5,5.67157288 7.5,6.5 C7.5,7.27969612 6.90511192,7.92044868 6.14446001,7.99313342 L6,8 L5,8 C4.17157288,8 3.5,7.32842712 3.5,6.5 C3.5,5.72030388 4.09488808,5.07955132 4.85553999,5.00686658 L5,5 L6,5 Z"></path>
</svg>