<svg width="32" height="32" viewBox="0 0 32 32" fill="none" xmlns="http://www.w3.org/2000/svg">
<path d="M19.903 14.7902C20.3394 14.2914 20.2888 13.5333 19.7901 13.0969C19.2913 12.6605 18.5332 12.711 18.0968 13.2098L15.4414 16.2445L13.8484 14.6515C13.3798 14.1828 12.62 14.1828 12.1513 14.6515C11.6827 15.1201 11.6827 15.8799 12.1513 16.3485L15.5583 19.7555L19.903 14.7902Z" fill="#404040"/>
<path fill-rule="evenodd" clip-rule="evenodd" d="M15.9999 6.79999C7.98196 6.79999 3.08939 11.9386 1.29528 14.8234C0.813683 15.5978 0.901205 16.5624 1.43909 17.2437C3.60066 19.9815 8.86265 25.2 15.9999 25.2C23.1371 25.2 28.3991 19.9815 30.5606 17.2437C31.0985 16.5624 31.1861 15.5978 30.7044 14.8234C28.9103 11.9386 24.0178 6.79999 15.9999 6.79999ZM8.54208 20.4827C6.28964 19.062 4.53685 17.263 3.44703 15.9121C4.39122 14.4602 6.21083 12.4188 8.90089 10.9693C7.89258 12.3896 7.2998 14.1256 7.2998 16C7.2998 17.6397 7.75345 19.1735 8.54208 20.4827ZM23.4574 20.4829C25.71 19.0621 27.4628 17.263 28.5527 15.9121C27.6085 14.4602 25.7888 12.4187 23.0986 10.9692C24.107 12.3895 24.6998 14.1255 24.6998 16C24.6998 17.6398 24.2461 19.1736 23.4574 20.4829ZM9.6998 16C9.6998 12.5206 12.5204 9.69999 15.9998 9.69999C19.4792 9.69999 22.2998 12.5206 22.2998 16C22.2998 19.4794 19.4792 22.3 15.9998 22.3C12.5204 22.3 9.6998 19.4794 9.6998 16Z" fill="#404040"/>
</svg>
