<svg viewBox="0 0 14 14" xmlns="http://www.w3.org/2000/svg">
<path transform="translate(-5, -5)" fill="currentColor" d="M18.03161,6.0791193 C18.5829384,6.63044771 18.6153695,7.50417759 18.1289033,8.09343559 L18.03161,8.20043964 L14.192829,12.0377795 L18.03161,15.8762401 C18.6173965,16.4620266 18.6173965,17.411774 18.03161,17.9975605 C17.4802816,18.5488889 16.6065517,18.58132 16.0172937,18.0948537 L15.9102897,17.9975605 L12.071829,14.1587795 L8.23448919,17.9975605 C7.64870275,18.5833469 6.69895528,18.5833469 6.11316884,17.9975605 C5.56184043,17.4462321 5.52940935,16.5725022 6.01587559,15.9832442 L6.11316884,15.8762401 L9.95082902,12.0377795 L6.11316884,8.20043964 C5.52738241,7.6146532 5.52738241,6.66490574 6.11316884,6.0791193 C6.66449726,5.52779089 7.53822713,5.4953598 8.12748513,5.98182605 L8.23448919,6.0791193 L12.071829,9.91677947 L15.9102897,6.0791193 C16.4960761,5.49333286 17.4458236,5.49333286 18.03161,6.0791193 Z"></path>
</svg>