<svg viewBox="0 0 261 262" version="1.1" xmlns="http://www.w3.org/2000/svg">
  <defs>
    <linearGradient x1="0%" y1="50.0000383%" x2="99.9997772%" y2="50.0000383%" id="gradient">
      <stop stop-color="#11A8CB" offset="0%"></stop>
      <stop stop-color="#14375F" offset="100%"></stop>
	  </linearGradient>
  </defs>
  <g stroke="none" stroke-width="1" fill="none" fill-rule="evenodd" transform="translate(0.000000, 0.196000)">
    <mask id="mask1" fill="white">
			<path d="M130.099,0.805 C58.249,0.805 0,59.051 0,130.9 L0,130.9 C0,202.754 58.249,260.999 130.099,260.999 L130.099,260.999 C201.948,260.999 260.194,202.754 260.194,130.9 L260.194,130.9 C260.194,59.051 201.948,0.805 130.099,0.805 Z"></path>
    </mask>
    <path d="M130.099,0.805 C58.249,0.805 0,59.051 0,130.9 L0,130.9 C0,202.754 58.249,260.999 130.099,260.999 L130.099,260.999 C201.948,260.999 260.194,202.754 260.194,130.9 L260.194,130.9 C260.194,59.051 201.948,0.805 130.099,0.805 Z" fill="url(#gradient)" mask="url(#mask1)"></path>
    <path d="M251.8967,130.9024 C251.8967,198.1724 197.3657,252.7034 130.0987,252.7034 C62.8267,252.7034 8.2967,198.1724 8.2967,130.9024 C8.2967,63.6314 62.8267,9.1004 130.0987,9.1004 C197.3657,9.1004 251.8967,63.6314 251.8967,130.9024" fill="#065492"></path>
    <path d="M247.1154,130.9019 C247.1154,195.5299 194.7244,247.9239 130.0964,247.9239 C65.4694,247.9239 13.0774,195.5299 13.0774,130.9019 C13.0774,66.2739 65.4694,13.8819 130.0964,13.8819 C194.7244,13.8819 247.1154,66.2739 247.1154,130.9019" fill="#FEFEFE"></path>
    <g fill="#333333">
	    <polygon points="120.3518 26.0132 118.8708 26.1712 118.1438 19.2612 119.6278 19.1012"></polygon>
	    <polygon points="143.3293 244.9937 141.8493 245.1477 141.1243 238.2367 142.6033 238.0817"></polygon>
	    <polygon points="109.3366 27.6841 107.8796 27.9931 106.4356 21.1951 107.8936 20.8871"></polygon>
	    <polygon points="155.0393 243.0581 153.5823 243.3681 152.1393 236.5691 153.5963 236.2581"></polygon>
	    <polygon points="98.5544 30.4966 97.1374 30.9546 94.9924 24.3476 96.4094 23.8886"></polygon>
	    <polygon points="166.4797 239.9048 165.0647 240.3638 162.9197 233.7548 164.3367 233.2958"></polygon>
	    <polygon points="88.1257 34.4214 86.7647 35.0284 83.9387 28.6804 85.3027 28.0744"></polygon>
	    <polygon points="177.5324 235.5708 176.1724 236.1778 173.3494 229.8298 174.7104 229.2238"></polygon>
	    <polygon points="68.7741 45.4331 67.5701 46.3091 63.4921 40.6861 64.6981 39.8101"></polygon>
	    <polygon points="197.9826 223.5669 196.7786 224.4419 192.6976 218.8169 193.9016 217.9419"></polygon>
	    <polygon points="60.0676 52.3945 58.9606 53.3945 54.3186 48.2285 55.4246 47.2305"></polygon>
	    <polygon points="207.1545 216.0239 206.0485 217.0209 201.4055 211.8599 202.5125 210.8599"></polygon>
	    <polygon points="52.1335 60.2295 51.1365 61.3365 45.9835 56.6895 46.9795 55.5805"></polygon>
	    <polygon points="215.4934 207.565 214.4934 208.67 209.3404 204.021 210.3364 202.914"></polygon>
	    <polygon points="45.0612 68.8545 44.1872 70.0595 38.5762 65.9775 39.4512 64.7705"></polygon>
	    <polygon points="222.9006 198.2759 222.0256 199.4829 216.4136 195.3959 217.2866 194.1899"></polygon>
	    <polygon points="33.8015 88.0806 33.1955 89.4426 26.8575 86.6146 27.4645 85.2526"></polygon>
	    <polygon points="234.6164 177.6402 234.0104 178.9972 227.6724 176.1722 228.2784 174.8102"></polygon>
	    <polygon points="29.737 98.4727 29.277 99.8887 22.678 97.7397 23.14 96.3247"></polygon>
	    <polygon points="238.7961 166.5152 238.3351 167.9312 231.7381 165.7832 232.2011 164.3652"></polygon>
	    <polygon points="26.7771 109.229 26.4681 110.69 19.6821 109.242 19.9921 107.785"></polygon>
	    <polygon points="241.7932 155.0083 241.4842 156.4633 234.6962 155.0243 235.0072 153.5633"></polygon>
	    <polygon points="24.9558 120.2398 24.8008 121.7218 17.9028 120.9958 18.0578 119.5138"></polygon>
	    <polygon points="243.5754 143.2544 243.4144 144.7374 236.5154 144.0134 236.6744 142.5304"></polygon>
	    <polygon points="24.8005 142.5308 24.9555 144.0128 18.0575 144.7378 17.9035 143.2548"></polygon>
	    <polygon points="243.4143 119.5137 243.5753 120.9957 236.6743 121.7247 236.5163 120.2417"></polygon>
	    <polygon points="26.4685 153.563 26.7775 155.024 19.9925 156.463 19.6815 155.008"></polygon>
	    <polygon points="241.4846 107.7852 241.7936 109.2422 235.0066 110.6902 234.6966 109.2312"></polygon>
	    <polygon points="29.2771 164.3648 29.7351 165.7828 23.1401 167.9308 22.6781 166.5148"></polygon>
	    <polygon points="238.3352 96.3242 238.7962 97.7402 232.2012 99.8882 231.7382 98.4722"></polygon>
	    <polygon points="33.197 174.8101 33.801 176.1721 27.465 178.9971 26.858 177.6401"></polygon>
	    <polygon points="234.01 85.2529 234.616 86.6149 228.279 89.4419 227.673 88.0809"></polygon>
	    <polygon points="44.1872 194.19 45.0612 195.396 39.4512 199.483 38.5762 198.276"></polygon>
	    <polygon points="222.0256 64.77 222.9006 65.977 217.2886 70.059 216.4136 68.854"></polygon>
	    <polygon points="51.1374 202.9136 52.1334 204.0206 46.9794 208.6706 45.9834 207.5646"></polygon>
	    <polygon points="214.4934 55.5806 215.4934 56.6896 210.3394 61.3366 209.3404 60.2296"></polygon>
	    <polygon points="58.9621 210.8599 60.0671 211.8579 55.4241 217.0209 54.3181 216.0239"></polygon>
	    <polygon points="206.048 47.2305 207.154 48.2285 202.513 53.3945 201.408 52.3945"></polygon>
	    <polygon points="67.5705 217.9419 68.7745 218.8169 64.6975 224.4419 63.4925 223.5669"></polygon>
	    <polygon points="196.7785 39.8101 197.9825 40.6861 193.9045 46.3091 192.7005 45.4331"></polygon>
	    <polygon points="86.7648 229.2241 88.1258 229.8291 85.3038 236.1781 83.9438 235.5711"></polygon>
	    <polygon points="176.1721 28.0767 177.5331 28.6817 174.7101 35.0287 173.3521 34.4217"></polygon>
	    <polygon points="97.1374 233.2954 98.5544 233.7544 96.4094 240.3634 94.9924 239.9044"></polygon>
	    <polygon points="165.0647 23.8902 166.4817 24.3472 164.3377 30.9542 162.9197 30.4962"></polygon>
	    <polygon points="107.8801 236.2583 109.3341 236.5693 107.8941 243.3673 106.4361 243.0583"></polygon>
	    <polygon points="153.5822 20.8867 155.0402 21.1957 153.5972 27.9927 152.1402 27.6837"></polygon>
	    <polygon points="118.8689 238.0816 120.3499 238.2386 119.6279 245.1476 118.1439 244.9936"></polygon>
	    <polygon points="141.8488 19.1035 143.3288 19.2605 142.6048 26.1695 141.1238 26.0135"></polygon>

	    <mask id="mask2" fill="white">
			  <polygon points="0 261 260.193 261 260.193 0.804 0 0.804"></polygon>
	    </mask>
	    <polygon mask="url(#mask2)" points="129.403 32.551 132.121 32.551 132.121 18.262 129.403 18.262"></polygon>
	    <polygon mask="url(#mask2)" points="129.403 245.394 132.121 245.394 132.121 231.926 129.403 231.926"></polygon>
	    <polygon mask="url(#mask2)" points="82.1364 44.7315 79.7824 46.0975 72.8964 34.1585 75.2504 32.7935"></polygon>
	    <polygon mask="url(#mask2)" points="188.6291 229.5015 186.2731 230.8595 179.3841 218.9135 181.7381 217.5515"></polygon>
	    <polygon mask="url(#mask2)" points="44.656 80.4541 43.3 82.8131 31.897 76.2251 33.257 73.8671"></polygon>
	    <polygon mask="url(#mask2)" points="229.6301 187.4312 228.2701 189.7902 216.4051 182.9332 217.7641 180.5762"></polygon>
	    <polygon mask="url(#mask2)" points="17.384 133.19 31.314 133.19 31.314 130.466 17.384 130.466"></polygon>
	    <polygon mask="url(#mask2)" points="229.864 133.19 244.141 133.19 244.141 130.466 229.864 130.466"></polygon>
	    <polygon mask="url(#mask2)" points="43.238 180.8775 44.595 183.2415 33.257 189.7905 31.897 187.4315"></polygon>
	    <polygon mask="url(#mask2)" points="228.2727 73.8672 229.6267 76.2272 218.5897 82.6022 217.2327 80.2462"></polygon>
	    <polygon mask="url(#mask2)" points="79.8122 217.5103 82.1642 218.8793 75.2502 230.8603 72.8952 229.5013"></polygon>
	    <polygon mask="url(#mask2)" points="186.2756 32.794 188.6286 34.162 182.2176 45.275 179.8646 43.912"></polygon>
	    <path d="M134.3127,54.5913 C135.3097,53.7433 136.3797,52.8223 137.5267,51.8303 C138.6757,50.8393 139.7857,49.8133 140.8637,48.7533 C141.6207,48.0183 142.2607,47.3473 142.7877,46.7423 C143.3167,46.1383 143.7787,45.5223 144.1697,44.8993 C144.5917,44.2333 144.9117,43.5293 145.1267,42.7883 C145.3427,42.0493 145.4537,41.2473 145.4537,40.3903 C145.4537,38.4873 144.7967,36.9753 143.4897,35.8633 C142.1807,34.7513 140.3757,34.1933 138.0707,34.1933 C136.9527,34.1933 135.7987,34.3373 134.6057,34.6323 C133.4137,34.9233 132.4587,35.2463 131.7477,35.5973 L131.7477,38.7733 L131.8977,38.7733 C132.9147,38.1093 133.9547,37.6143 135.0227,37.2913 C136.0867,36.9703 137.0787,36.8073 137.9957,36.8073 C139.3747,36.8073 140.4497,37.1393 141.2177,37.7983 C141.9887,38.4593 142.3727,39.3753 142.3727,40.5423 C142.3727,41.8243 142.0167,43.0133 141.3027,44.1193 C140.5867,45.2213 139.2637,46.7113 137.3327,48.5853 C136.4157,49.4843 135.4257,50.3883 134.3657,51.2943 C133.3027,52.2023 132.2447,53.1103 131.1897,54.0163 L131.1897,57.1763 L146.4047,57.1763 L146.4047,54.5913 L134.3127,54.5913 Z M124.8467,34.5863 L122.5067,34.5863 C122.4667,35.2393 122.3147,35.7603 122.0467,36.1493 C121.7797,36.5393 121.4157,36.8593 120.9527,37.1113 C120.5817,37.3123 120.0327,37.4663 119.3077,37.5703 C118.5837,37.6773 117.9027,37.7323 117.2687,37.7323 L117.2687,39.7883 L121.9477,39.7883 L121.9477,54.8773 L117.2687,54.8773 L117.2687,57.1763 L129.4347,57.1763 L129.4347,54.8773 L124.8467,54.8773 L124.8467,34.5863 Z" mask="url(#mask2)"></path>
	    <path d="M99.758,68.5596 L99.758,48.2676 L97.419,48.2676 C97.377,48.9226 97.221,49.4436 96.956,49.8316 C96.689,50.2206 96.325,50.5386 95.862,50.7916 C95.489,50.9966 94.941,51.1466 94.216,51.2536 C93.493,51.3606 92.812,51.4136 92.178,51.4136 L92.178,53.4696 L96.858,53.4696 L96.858,68.5596 L92.178,68.5596 L92.178,70.8576 L104.347,70.8576 L104.347,68.5596 L99.758,68.5596 Z M85.559,48.2676 L83.22,48.2676 C83.179,48.9226 83.026,49.4436 82.759,49.8316 C82.491,50.2206 82.128,50.5386 81.663,50.7916 C81.291,50.9966 80.743,51.1466 80.02,51.2536 C79.294,51.3606 78.616,51.4136 77.981,51.4136 L77.981,53.4696 L82.662,53.4696 L82.662,68.5596 L77.981,68.5596 L77.981,70.8576 L90.149,70.8576 L90.149,68.5596 L85.559,68.5596 L85.559,48.2676 Z" mask="url(#mask2)"></path>
	    <path d="M72.9587,91.1299 C72.8327,92.2329 72.5937,93.1939 72.2417,94.0089 C71.8997,94.8059 71.4157,95.4009 70.7917,95.7919 C70.1677,96.1869 69.3827,96.3849 68.4377,96.3849 C67.4307,96.3849 66.6237,96.1749 66.0127,95.7619 C65.4057,95.3519 64.9347,94.7479 64.6017,93.9659 C64.2387,93.1259 64.0027,92.1799 63.8927,91.1209 C63.7827,90.0619 63.7277,88.7469 63.7277,87.1739 C63.7277,85.7429 63.7897,84.4249 63.9157,83.2309 C64.0427,82.0289 64.2747,81.0559 64.6177,80.3099 C64.9797,79.5119 65.4687,78.9189 66.0887,78.5249 C66.7087,78.1339 67.4887,77.9349 68.4377,77.9349 C69.3947,77.9349 70.1747,78.1339 70.7847,78.5249 C71.3927,78.9189 71.8727,79.5029 72.2267,80.2799 C72.5877,81.0659 72.8327,82.0229 72.9587,83.1529 C73.0837,84.2819 73.1457,85.6129 73.1457,87.1459 C73.1457,88.6979 73.0837,90.0249 72.9587,91.1299 L72.9587,91.1299 Z M74.3487,78.3519 C73.1047,76.4109 71.1317,75.4399 68.4377,75.4399 C65.7707,75.4399 63.8067,76.3959 62.5487,78.3049 C61.2897,80.2159 60.6627,83.1729 60.6627,87.1739 C60.6627,91.1459 61.2837,94.0889 62.5257,96.0039 C63.7687,97.9219 65.7407,98.8789 68.4377,98.8789 C71.0957,98.8789 73.0547,97.9339 74.3167,96.0439 C75.5807,94.1509 76.2117,91.1879 76.2117,87.1459 C76.2117,83.2229 75.5887,80.2909 74.3487,78.3519 L74.3487,78.3519 Z M55.6757,75.8169 L53.3367,75.8169 C53.2967,76.4729 53.1437,76.9949 52.8757,77.3829 C52.6077,77.7709 52.2447,78.0929 51.7807,78.3439 C51.4087,78.5449 50.8587,78.6979 50.1347,78.8039 C49.4117,78.9109 48.7327,78.9649 48.0967,78.9649 L48.0967,81.0219 L52.7777,81.0219 L52.7777,96.1099 L48.0967,96.1099 L48.0967,98.4089 L60.2657,98.4089 L60.2657,96.1099 L55.6757,96.1099 L55.6757,75.8169 Z" mask="url(#mask2)"></path>
	    <path d="M48.4885,130.7661 C48.4885,129.2051 48.3265,127.9511 48.0055,127.0031 C47.6825,126.0531 47.2395,125.3191 46.6775,124.7931 C46.2015,124.3391 45.6955,124.0151 45.1515,123.8161 C44.6075,123.6231 44.0195,123.5221 43.3855,123.5221 C41.9365,123.5221 40.7905,123.9791 39.9505,124.8851 C39.1105,125.7911 38.6905,127.0681 38.6905,128.7091 C38.6905,129.6661 38.8255,130.4491 39.0985,131.0551 C39.3695,131.6581 39.8255,132.1901 40.4715,132.6431 C40.9245,132.9541 41.4225,133.1641 41.9665,133.2691 C42.5095,133.3741 43.1135,133.4271 43.7785,133.4271 C44.5635,133.4271 45.3585,133.3231 46.1635,133.1141 C46.9685,132.9001 47.7215,132.5901 48.4275,132.1901 C48.4365,131.9751 48.4485,131.7691 48.4645,131.5591 C48.4805,131.3541 48.4885,131.0901 48.4885,130.7661 M51.5365,131.4151 C51.5365,133.3821 51.3135,135.1651 50.8645,136.7671 C50.4185,138.3711 49.7405,139.7391 48.8355,140.8691 C47.9185,142.0161 46.7715,142.9031 45.3925,143.5281 C44.0155,144.1541 42.3935,144.4661 40.5315,144.4661 C40.0085,144.4661 39.5145,144.4401 39.0525,144.3831 C38.5905,144.3281 38.1775,144.2391 37.8155,144.1201 L37.8155,141.2301 L37.9655,141.2301 C38.2575,141.3811 38.6685,141.5251 39.2035,141.6611 C39.7365,141.7971 40.3305,141.8691 40.9845,141.8691 C43.2085,141.8691 44.9525,141.2001 46.2145,139.8631 C47.4805,138.5271 48.2105,136.6831 48.4105,134.3351 C47.4755,134.9021 46.5955,135.3031 45.7715,135.5451 C44.9445,135.7871 44.0435,135.9101 43.0685,135.9101 C42.1415,135.9101 41.3055,135.8171 40.5555,135.6331 C39.8065,135.4531 39.0525,135.1021 38.2975,134.5781 C37.4105,133.9631 36.7455,133.1811 36.2975,132.2341 C35.8495,131.2861 35.6255,130.1511 35.6255,128.8321 C35.6255,126.5331 36.3815,124.6621 37.8915,123.2211 C39.4005,121.7791 41.2415,121.0581 43.4155,121.0581 C44.5025,121.0581 45.5095,121.2281 46.4345,121.5651 C47.3615,121.9021 48.1715,122.4091 48.8655,123.0841 C49.7215,123.9221 50.3785,124.9971 50.8425,126.3141 C51.3055,127.6301 51.5365,129.3311 51.5365,131.4151" mask="url(#mask2)"></path>
	    <path d="M61.6037,172.5083 C61.6037,171.4303 61.1867,170.5713 60.3577,169.9293 C59.5257,169.2903 58.4667,168.9723 57.1797,168.9723 C55.9117,168.9723 54.8717,169.2733 54.0617,169.8793 C53.2507,170.4843 52.8447,171.2993 52.8447,172.3273 C52.8447,173.0553 53.0497,173.6813 53.4577,174.2103 C53.8667,174.7393 54.4837,175.2113 55.3077,175.6233 C55.6807,175.8063 56.2157,176.0413 56.9157,176.3343 C57.6137,176.6283 58.2967,176.8663 58.9587,177.0623 C59.9567,176.3983 60.6457,175.7043 61.0287,174.9883 C61.4107,174.2733 61.6037,173.4483 61.6037,172.5083 M62.0707,183.7913 C62.0707,182.8623 61.8667,182.1193 61.4597,181.5603 C61.0507,181.0003 60.2527,180.4373 59.0667,179.8733 C58.5937,179.6523 58.0747,179.4453 57.5137,179.2533 C56.9467,179.0623 56.1977,178.7943 55.2617,178.4523 C54.3547,178.9453 53.6287,179.6153 53.0817,180.4643 C52.5317,181.3103 52.2567,182.2663 52.2567,183.3353 C52.2567,184.6973 52.7237,185.8193 53.6607,186.7053 C54.5987,187.5953 55.7857,188.0393 57.2247,188.0393 C58.6937,188.0393 59.8687,187.6593 60.7497,186.9033 C61.6307,186.1483 62.0707,185.1123 62.0707,183.7913 M65.1807,183.5033 C65.1807,185.4483 64.4217,187.0653 62.9087,188.3573 C61.3947,189.6473 59.4887,190.2903 57.1957,190.2903 C54.7587,190.2903 52.8187,189.6603 51.3757,188.4013 C49.9307,187.1403 49.2077,185.5293 49.2077,183.5653 C49.2077,182.3133 49.5697,181.1813 50.2957,180.1693 C51.0207,179.1553 52.0407,178.3523 53.3597,177.7573 L53.3597,177.6663 C52.1507,177.0183 51.2597,176.3153 50.6807,175.5483 C50.1017,174.7803 49.8117,173.8253 49.8117,172.6743 C49.8117,170.9823 50.5077,169.5693 51.8967,168.4443 C53.2867,167.3123 55.0477,166.7473 57.1957,166.7473 C59.4387,166.7473 61.2307,167.2883 62.5687,168.3653 C63.9087,169.4443 64.5767,170.8163 64.5767,172.4793 C64.5767,173.4973 64.2587,174.4983 63.6257,175.4813 C62.9917,176.4623 62.0607,177.2323 60.8327,177.7863 L60.8327,177.8763 C62.2407,178.4813 63.3187,179.2283 64.0617,180.1133 C64.8077,181.0023 65.1807,182.1293 65.1807,183.5033" mask="url(#mask2)"></path>
	    <polygon mask="url(#mask2)" points="98.1848 198.4439 88.0098 217.5899 84.7808 217.5899 95.6028 197.7189 82.8008 197.7189 82.8008 195.0739 98.1848 195.0739"></polygon>
	    <path d="M135.7268,221.1509 C135.7268,220.2149 135.5898,219.4359 135.3118,218.8209 C135.0358,218.2059 134.5808,217.6729 133.9478,217.2169 C133.4828,216.8939 132.9708,216.6849 132.4058,216.5839 C131.8448,216.4829 131.2558,216.4309 130.6408,216.4309 C129.7848,216.4309 128.9908,216.5349 128.2538,216.7359 C127.5228,216.9359 126.7658,217.2489 125.9918,217.6729 C125.9728,217.8929 125.9558,218.1079 125.9458,218.3139 C125.9348,218.5209 125.9298,218.7809 125.9298,219.0949 C125.9298,220.6859 126.0938,221.9459 126.4228,222.8689 C126.7478,223.7879 127.1988,224.5169 127.7728,225.0509 C128.2348,225.4989 128.7358,225.8199 129.2748,226.0269 C129.8138,226.2349 130.3978,226.3369 131.0318,226.3369 C132.4918,226.3369 133.6388,225.8919 134.4748,224.9969 C135.3108,224.1059 135.7268,222.8249 135.7268,221.1509 M138.7928,221.0309 C138.7928,223.3179 138.0398,225.1869 136.5358,226.6329 C135.0328,228.0779 133.1858,228.8019 131.0028,228.8019 C129.8958,228.8019 128.8878,228.6309 127.9838,228.2869 C127.0768,227.9449 126.2768,227.4369 125.5828,226.7609 C124.7178,225.9229 124.0518,224.8149 123.5828,223.4339 C123.1158,222.0509 122.8808,220.3889 122.8808,218.4449 C122.8808,216.4479 123.0948,214.6779 123.5218,213.1349 C123.9488,211.5939 124.6328,210.2229 125.5668,209.0219 C126.4558,207.8819 127.5968,206.9939 128.9948,206.3519 C130.3938,205.7129 132.0228,205.3939 133.8858,205.3939 C134.4778,205.3939 134.9778,205.4199 135.3798,205.4689 C135.7808,205.5189 136.1918,205.6109 136.6018,205.7429 L136.6018,208.6299 L136.4508,208.6299 C136.1688,208.4769 135.7438,208.3359 135.1768,208.1979 C134.6068,208.0609 134.0258,207.9939 133.4308,207.9939 C131.2678,207.9939 129.5428,208.6729 128.2538,210.0279 C126.9668,211.3859 126.2168,213.2179 126.0068,215.5249 C126.8508,215.0109 127.6838,214.6219 128.5038,214.3549 C129.3248,214.0869 130.2728,213.9519 131.3498,213.9519 C132.3068,213.9519 133.1488,214.0419 133.8778,214.2179 C134.6068,214.3939 135.3548,214.7479 136.1188,215.2839 C137.0078,215.8989 137.6718,216.6729 138.1218,217.6139 C138.5688,218.5489 138.7928,219.6899 138.7928,221.0309" mask="url(#mask2)"></path>
	    <path d="M185.1213,208.1109 C185.1213,209.1589 184.9313,210.1609 184.5493,211.1199 C184.1663,212.0779 183.6423,212.8819 182.9773,213.5409 C182.2533,214.2439 181.3923,214.7889 180.3883,215.1639 C179.3883,215.5439 178.2283,215.7319 176.9113,215.7319 C175.6813,215.7319 174.4993,215.6039 173.3603,215.3439 C172.2253,215.0899 171.2623,214.7799 170.4793,214.4159 L170.4793,211.2269 L170.6893,211.2269 C171.5143,211.7489 172.4813,212.1949 173.5863,212.5639 C174.6943,212.9329 175.7823,213.1149 176.8493,213.1149 C177.5623,213.1149 178.2563,213.0139 178.9263,212.8119 C179.5943,212.6119 180.1893,212.2589 180.7143,211.7539 C181.1553,211.3219 181.4903,210.8019 181.7173,210.1979 C181.9443,209.5899 182.0583,208.8909 182.0583,208.0969 C182.0583,207.3179 181.9253,206.6629 181.6573,206.1309 C181.3923,205.5939 181.0183,205.1669 180.5473,204.8449 C180.0243,204.4629 179.3883,204.1919 178.6383,204.0349 C177.8893,203.8799 177.0503,203.8019 176.1243,203.8019 C175.2383,203.8019 174.3863,203.8609 173.5663,203.9819 C172.7453,204.1029 172.0393,204.2239 171.4443,204.3459 L171.4443,192.7479 L184.9703,192.7479 L184.9703,195.3899 L174.3583,195.3899 L174.3583,201.3789 C174.7923,201.3429 175.2323,201.3099 175.6883,201.2899 C176.1393,201.2719 176.5323,201.2599 176.8643,201.2599 C178.0833,201.2599 179.1483,201.3639 180.0653,201.5719 C180.9773,201.7769 181.8233,202.1439 182.5863,202.6669 C183.3903,203.2229 184.0143,203.9349 184.4583,204.8149 C184.8993,205.6889 185.1213,206.7889 185.1213,208.1109" mask="url(#mask2)"></path>
	    <path d="M207.6789,179.9107 L207.6789,169.7507 L198.9709,179.9107 L207.6789,179.9107 Z M213.9149,182.3277 L210.5789,182.3277 L210.5789,188.6637 L207.6789,188.6637 L207.6789,182.3277 L196.9179,182.3277 L196.9179,178.8517 L207.8009,166.1497 L210.5789,166.1497 L210.5789,179.9107 L213.9149,179.9107 L213.9149,182.3277 Z" mask="url(#mask2)"></path>
	    <path d="M226.6945,133.1782 C227.1745,133.6142 227.5735,134.1572 227.8855,134.8132 C228.1975,135.4672 228.3525,136.3152 228.3525,137.3522 C228.3525,138.3782 228.1685,139.3242 227.7935,140.1812 C227.4235,141.0372 226.8975,141.7832 226.2225,142.4162 C225.4685,143.1222 224.5835,143.6442 223.5575,143.9812 C221.6155,144.6272 220.4195,144.4882 220.2015,144.4882 C218.9535,144.4882 217.7235,144.3392 216.5165,144.0442 C215.3065,143.7462 214.3185,143.4192 213.5435,143.0692 L213.5435,139.9092 L213.7685,139.9092 C214.6255,140.4702 215.6305,140.9412 216.7885,141.3152 C217.9475,141.6862 219.0635,141.8742 220.1395,141.8742 C220.7725,141.8742 221.4475,141.7682 222.1635,141.5552 C222.8775,141.3452 223.4555,141.0302 223.9005,140.6152 C224.3625,140.1742 224.7065,139.6852 224.9325,139.1522 C225.1605,138.6182 225.2725,137.9432 225.2725,137.1252 C225.2725,136.3202 225.1455,135.6502 224.8875,135.1202 C224.6295,134.5922 224.2765,134.1772 223.8245,133.8742 C223.3705,133.5622 222.8205,133.3482 222.1775,133.2332 C221.5355,133.1152 220.8405,133.0572 220.0965,133.0572 L218.7365,133.0572 L218.7365,130.5462 L219.7935,130.5462 C221.3225,130.5462 222.5425,130.2262 223.4555,129.5872 C224.3655,128.9502 224.8205,128.0142 224.8205,126.7842 C224.8205,126.2392 224.7045,125.7612 224.4735,125.3522 C224.2425,124.9452 223.9205,124.6102 223.5065,124.3482 C223.0735,124.0862 222.6105,123.9052 222.1195,123.8042 C221.6245,123.7012 221.0655,123.6512 220.4415,123.6512 C219.4855,123.6512 218.4685,123.8232 217.3945,124.1672 C216.3175,124.5072 215.2995,124.9952 214.3425,125.6172 L214.1905,125.6172 L214.1905,122.4582 C214.9065,122.1042 215.8595,121.7792 217.0535,121.4822 C218.2465,121.1862 219.3985,121.0372 220.5185,121.0372 C221.6125,121.0372 222.5815,121.1372 223.4145,121.3392 C224.2525,121.5402 225.0055,121.8652 225.6805,122.3052 C226.4065,122.7902 226.9555,123.3752 227.3245,124.0592 C227.6985,124.7472 227.8855,125.5492 227.8855,126.4662 C227.8855,127.7142 227.4445,128.8052 226.5625,129.7382 C225.6825,130.6722 224.6425,131.2612 223.4485,131.5002 L223.4485,131.7112 C223.9285,131.7932 224.4815,131.9612 225.1085,132.2182 C225.7305,132.4782 226.2595,132.7942 226.6945,133.1782" mask="url(#mask2)"></path>
	    <path d="M184.3127,68.6035 L172.1447,68.6035 L172.1447,66.3045 L176.8247,66.3045 L176.8247,51.2125 L172.1447,51.2125 L172.1447,49.1565 C172.7777,49.1565 173.4577,49.1035 174.1827,48.9975 C174.9067,48.8935 175.4557,48.7365 175.8287,48.5365 C176.2887,48.2835 176.6537,47.9635 176.9207,47.5765 C177.1887,47.1875 177.3417,46.6665 177.3837,46.0115 L179.7237,46.0115 L179.7237,66.3045 L184.3127,66.3045 L184.3127,68.6035 Z" mask="url(#mask2)"></path>
	    <path d="M215.1311,97.4248 L199.9181,97.4248 L199.9181,94.2638 C200.9731,93.3568 202.0321,92.4498 203.0941,91.5408 C204.1551,90.6348 205.1451,89.7328 206.0591,88.8328 C207.9921,86.9608 209.3171,85.4728 210.0311,84.3688 C210.7441,83.2628 211.1001,82.0728 211.1001,80.7918 C211.1001,79.6218 210.7181,78.7068 209.9491,78.0458 C209.1791,77.3858 208.1031,77.0578 206.7231,77.0578 C205.8111,77.0578 204.8181,77.2158 203.7511,77.5418 C202.6851,77.8598 201.6431,78.3578 200.6241,79.0218 L200.4761,79.0218 L200.4761,75.8438 C201.1911,75.4918 202.1421,75.1708 203.3331,74.8768 C204.5271,74.5868 205.6831,74.4398 206.8011,74.4398 C209.1051,74.4398 210.9111,74.9968 212.2191,76.1118 C213.5271,77.2288 214.1831,78.7348 214.1831,80.6378 C214.1831,81.4978 214.0741,82.2958 213.8601,83.0358 C213.6401,83.7778 213.3201,84.4818 212.8991,85.1448 C212.5061,85.7718 212.0471,86.3878 211.5191,86.9898 C210.9891,87.5948 210.3481,88.2658 209.5921,89.0028 C208.5171,90.0598 207.4031,91.0868 206.2561,92.0788 C205.1091,93.0718 204.0371,93.9908 203.0411,94.8398 L215.1311,94.8398 L215.1311,97.4248 Z" mask="url(#mask2)"></path>
		</g>
	</g>
</svg>