<svg viewBox="0 0 32 32" version="1.1" xmlns="http://www.w3.org/2000/svg">
    <g id="Page-1" stroke="none" stroke-width="1" fill="none" fill-rule="evenodd">
        <g id="12.0-PreSchool---Audio-and-Annotation-tools" transform="translate(-694.000000, -373.000000)" fill="currentColor" fill-rule="nonzero">
            <g id="annotation-tools" transform="translate(48.000000, 342.000000)">
                <g id="annotation-tools-open" transform="translate(376.000000, 22.000000)">
                    <g id="marker-icon" transform="translate(264.000000, 3.000000)">
                        <g id="marker-icon" transform="translate(6.000000, 6.000000)">
                            <path d="M30.6666667,31.3333333 L11.8666667,31.3333333 C11.2,31.3333333 10.5333333,30.8 10.5333333,30 L10.5333333,30 C10.5333333,29.3333333 11.0666667,28.6666667 11.8666667,28.6666667 L30.6666667,28.6666667 C31.3333333,28.6666667 32,29.2 32,30 L32,30 C32,30.8 31.4666667,31.3333333 30.6666667,31.3333333 Z" id="Path"></path>
                            <path d="M30,11.2 L29.6,11.6 C30.5333333,10.4 30.9333333,8.4 29.7333333,7.33333333 L23.7333333,1.46666667 C22.8,0.4 21.0666667,0.4 20,1.33333333 L5.46666667,13.3333333 L18.2666667,25.8666667 L30,11.2 Z" id="Path"></path>
                            <path d="M4.8,14 L4.4,14.4 C4,14.8 4,15.3333333 4.13333333,15.7333333 C4.13333333,15.8666667 4.26666667,15.8666667 4.26666667,16 C4.26666667,16 4.26666667,16 4.26666667,16 C4.26666667,15.8666667 4.13333333,15.7333333 4.26666667,16 C4.26666667,16 4.26666667,16 4.26666667,16 C4.26666667,16 4.26666667,16 4.26666667,16 C4.26666667,16 4.26666667,16.1333333 4.4,16.1333333 C5.06666667,17.4666667 5.06666667,19.0666667 4.13333333,20.2666667 L4.13333333,20.2666667 C3.33333333,21.3333333 3.33333333,22.6666667 4.26666667,23.6 L8,27.2 C8.8,28 10.2666667,28.1333333 11.0666667,27.3333333 L11.0666667,27.3333333 C12.2666667,26.4 14,26.2666667 15.3333333,27.0666667 C15.4666667,27.0666667 15.2,26.9333333 15.0666667,26.8 C15.2,26.9333333 15.3333333,27.0666667 15.6,27.0666667 C16.1333333,27.2 17.0666667,26.8 17.4666667,26.4 L17.4666667,26.4 L4.8,14 Z" id="Path"></path>
                            <path d="M7.2,27.4666667 L4.13333333,24.4 C4,24.2666667 3.86666667,24.2666667 3.73333333,24.4 L2.66666667,25.3333333 L2,26 L0.4,27.6 L0.133333333,27.8666667 C0,28 0,28 0,28.1333333 L0,28.1333333 L0,29.3333333 C0,29.4666667 0.133333333,29.6 0.266666667,29.6 L5.33333333,29.6 C5.46666667,29.6 5.46666667,29.6 5.6,29.4666667 C5.6,29.4666667 5.6,29.4666667 5.6,29.4666667 L7.2,27.8666667 C7.33333333,27.7333333 7.33333333,27.6 7.2,27.4666667 Z" id="Path"></path>
                        </g>
                    </g>
                </g>
            </g>
        </g>
    </g>
</svg>