<svg viewBox="0 0 40 149" version="1.1" xmlns="http://www.w3.org/2000/svg">
    <g stroke="none" fill="currentColor" transform="translate(0.408569, 0.528656)">
        <polygon points="0 0 0 6.80038452 19.5914307 22.0852051 39.2583008 6.80038452 39.2583008 0 19.5914307 15.2937317"></polygon>
        <polygon points="4.54747351e-13 18 4.54747351e-13 24.8003845 19.5914307 40.0852051 39.2583008 24.8003845 39.2583008 18 19.5914307 33.2937317"></polygon>
        <polygon points="9.09494702e-13 36 9.09494702e-13 42.8003845 19.5914307 58.0852051 39.2583008 42.8003845 39.2583008 36 19.5914307 51.2937317"></polygon>
        <polygon points="9.09494702e-13 54 9.09494702e-13 60.8003845 19.5914307 76.0852051 39.2583008 60.8003845 39.2583008 54 19.5914307 69.2937317"></polygon>
        <polygon points="4.54747351e-13 72 4.54747351e-13 78.8003845 19.5914307 94.0852051 39.2583008 78.8003845 39.2583008 72 19.5914307 87.2937317"></polygon>
        <polygon points="1.36424205e-12 126 1.36424205e-12 132.800385 19.5914307 148.085205 39.2583008 132.800385 39.2583008 126 19.5914307 141.293732"></polygon>
        <polygon points="1.36424205e-12 108 1.36424205e-12 114.800385 19.5914307 130.085205 39.2583008 114.800385 39.2583008 108 19.5914307 123.293732"></polygon>
        <polygon points="9.09494702e-13 90 9.09494702e-13 96.8003845 19.5914307 112.085205 39.2583008 96.8003845 39.2583008 90 19.5914307 105.293732"></polygon>
    </g>
</svg>