<svg viewBox="0 0 20 20" xmlns="http://www.w3.org/2000/svg">
<g transform="translate(-2, -2)" fill="currentColor">
    <path d="M20.5364822,8.95850147 C21.1545059,8.34104507 21.1545059,7.34014817 20.5364822,6.72269176 L16.28104,2.46295247 C15.6628296,1.84568251 14.6607105,1.84568251 14.0425001,2.46295247 L5.56327816,10.9349952 L2.4635178,14.0183254 C1.84549407,14.6357818 1.84549407,15.6366787 2.4635178,16.2541351 L6.71896001,20.5138744 C7.44882251,21.2146887 8.2509396,21.1577657 9.12531126,20.3431054 L10.3949782,19.0781494 L12.0572603,17.421057 L20.5364822,8.95850147 Z M15.1055548,3.10555482 C15.1725588,3.03799912 15.2637675,3 15.3589164,3 C15.4540653,3 15.5452739,3.03799912 15.6122779,3.10555482 L19.8944452,7.38772205 C19.9620009,7.45472605 20,7.54593474 20,7.64108361 C20,7.73623249 19.9620009,7.82744118 19.8944452,7.89444518 C19.8274412,7.96200088 19.7362325,8 19.6410836,8 C19.5459347,8 19.4547261,7.96200088 19.3877221,7.89444518 L15.1055548,3.61227795 C15.0379991,3.54527395 15,3.45406526 15,3.35891639 C15,3.26376751 15.0379991,3.17255882 15.1055548,3.10555482 Z M6.5,11.5 L11.5,16.5 L8.70710678,19.2928932 C8.31658249,19.6834175 7.68341751,19.6834175 7.29289322,19.2928932 L3.70710678,15.7071068 C3.31658249,15.3165825 3.31658249,14.6834175 3.70710678,14.2928932 L6.5,11.5 L6.5,11.5 Z"></path>
    <rect x="12" y="20" width="10" height="2" rx="1"></rect>
    <rect x="14" y="17" width="5" height="2" rx="1"></rect>
</g>
</svg>