<svg viewBox="0 0 20 16" xmlns="http://www.w3.org/2000/svg">
<path transform="translate(-2, -4)" fill="currentColor" d="M12,4.00064436 C14.8971683,4.02877738 18.2742215,6.08597931 21.8758442,12.0974541 C22.0356149,12.3449271 22.0356149,12.674891 21.9077983,12.9429868 C20.9899549,14.740044 17.274134,20.0676068 12,19.999708 C9.10324045,19.9624154 5.71465698,19.2282107 2.1122149,13.2110825 C1.96842131,12.9842323 1.96842131,12.674891 2.08026077,12.4274181 C2.95847127,10.6937235 6.69755859,3.94915488 12,4.00064436 Z M12,6.00035114 C8.6862915,6.00035114 6,8.68664264 6,12.0003511 C6,15.3140596 8.6862915,18.0003511 12,18.0003511 C15.3137085,18.0003511 18,15.3140596 18,12.0003511 C18,8.68664264 15.3137085,6.00035114 12,6.00035114 Z M15.7039525,9.28975296 C16.0660374,9.64862888 16.0962913,10.2157309 15.7930155,10.6093758 L15.710247,10.7039525 L11.0984447,15.3569921 L8.35802553,13.0624578 C7.93457445,12.7079051 7.87872128,12.0772084 8.23327398,11.6537573 C8.56055341,11.2628794 9.12312711,11.185221 9.54079609,11.4544518 L9.64197447,11.5290058 L10.972,12.643 L14.289753,9.29604748 C14.6785352,8.90378888 15.3116939,8.90097072 15.7039525,9.28975296 Z"></path>
</svg>