<svg viewBox="0 0 32 31" version="1.1" xmlns="http://www.w3.org/2000/svg">
    <g stroke="none" fill="currentColor" fill-rule="evenodd">
        <g transform="translate(-397.000000, -712.000000)">
            <g transform="translate(-1944.000000, 144.000000)">
                <g transform="translate(2330.000000, 556.000000)">
                    <g transform="translate(11.000000, 12.000000)">
                        <path d="M24.6157153,-6.48353926 C20.7939965,-1.51068111 16.9722777,3.46176586 13.1513561,8.43503519 C12.7196339,8.9967124 12.7244175,8.9967124 13.161322,9.56414619 C14.8567189,11.7656248 22.5141088,21.7216207 24.6484035,24.4979344 C24.7448733,24.6233455 24.8325731,24.7557468 25,24.9913551 L24.4052358,24.9913551 C20.8338601,24.9917663 23.2624844,24.9872433 19.6911086,25 C19.3231681,25.0012235 19.0843854,24.8885592 18.8511836,24.5838719 C14.9776421,19.5275434 11.0953307,14.478205 7.20026295,9.43996865 C6.92759624,9.08717286 6.93636623,8.88116973 7.20823566,8.53413051 C8.87014718,6.41036564 10.5049515,4.26439684 12.1485258,2.12541817 C13.4221663,0.468347028 17.9446864,-5.42021768 18.9476534,-6.6944766 C19.0620618,-6.83962452 19.2741359,-6.99011783 19.4415628,-6.9909402 C23.2198304,-7.00533163 20.9984965,-6.99916387 24.7767641,-6.99546322 C24.8070604,-6.99546322 24.838154,-6.97860468 24.9641228,-6.94077576 C24.8238031,-6.75656537 24.7205565,-6.61964113 24.6157153,-6.48353926 Z" transform="translate(16.000000, 9.000005) rotate(-90.000000) translate(-16.000000, -9.000005) "></path>
                        <path d="M24.6157153,6.51646074 C20.7939965,11.4893189 16.9722777,16.4617659 13.1513561,21.4350352 C12.7196339,21.9967124 12.7244175,21.9967124 13.161322,22.5641462 C14.8567189,24.7656248 22.5141088,34.7216207 24.6484035,37.4979344 C24.7448733,37.6233455 24.8325731,37.7557468 25,37.9913551 L24.4052358,37.9913551 C20.8338601,37.9917663 23.2624844,37.9872433 19.6911086,38 C19.3231681,38.0012235 19.0843854,37.8885592 18.8511836,37.5838719 C14.9776421,32.5275434 11.0953307,27.478205 7.20026295,22.4399687 C6.92759624,22.0871729 6.93636623,21.8811697 7.20823566,21.5341305 C8.87014718,19.4103656 10.5049515,17.2643968 12.1485258,15.1254182 C13.4221663,13.468347 17.9446864,7.57978232 18.9476534,6.3055234 C19.0620618,6.16037548 19.2741359,6.00988217 19.4415628,6.0090598 C23.2198304,5.99466837 20.9984965,6.00083613 24.7767641,6.00453678 C24.8070604,6.00453678 24.838154,6.02139532 24.9641228,6.05922424 C24.8238031,6.24343463 24.7205565,6.38035887 24.6157153,6.51646074 Z" transform="translate(16.000000, 22.000005) rotate(-90.000000) translate(-16.000000, -22.000005) "></path>
                    </g>
                </g>
            </g>
        </g>
    </g>
</svg>