<svg viewBox="0 0 18 18" xmlns="http://www.w3.org/2000/svg">
<path transform="translate(-3, -3)" fill="currentColor" d="M19.1447096,7.875 C21.4228842,11.8209141 20.0709141,16.866535 16.125,19.1447096 C12.1790859,21.4228842 7.13346501,20.0709141 4.85529042,16.125 C4.51011245,15.5271342 4.71495639,14.7626462 5.31282217,14.4174682 C5.91068795,14.0722903 6.67517596,14.2771342 7.02035393,14.875 C8.60817258,17.6251826 12.1248174,18.5674647 14.875,16.9796461 C17.6251826,15.3918274 18.5674647,11.8751826 16.9796461,9.125 C15.3918274,6.37481742 11.8751826,5.43253527 9.125,7.02035393 C8.52259876,7.36815045 7.9984421,7.81295651 7.56746162,8.33428283 L8.51044129,8.13006335 C9.14286891,7.99253374 9.76755845,8.36005761 9.96404985,8.96237991 L9.99751424,9.08589494 C10.1350439,9.71832256 9.76751998,10.3430121 9.16519768,10.5395035 L9.04168265,10.5729679 L5.12996927,11.4236208 C4.46103601,11.5690891 3.80861492,11.150194 3.6501927,10.4998535 L3.62639416,10.3752837 L3.07207478,6.41131867 C2.97646596,5.72761532 3.45321077,5.09585798 4.13691412,5.00024916 C4.77788601,4.91061589 5.37320223,5.32402781 5.5238922,5.93940863 L5.54798364,6.0650885 L5.64173103,6.74005185 C6.26080735,5.99151303 7.01321236,5.35284374 7.875,4.85529042 C11.8209141,2.57711583 16.866535,3.92908586 19.1447096,7.875 Z"></path>
</svg>