<svg viewBox="0 0 16 19" xmlns="http://www.w3.org/2000/svg">
<path transform="translate(-4, -2)" fill="currentColor" d="M18,10.75 C18.6472087,10.75 19.1795339,11.2418747 19.2435464,11.8721948 L19.25,12 L19.25,19 C19.25,19.6472087 18.7581253,20.1795339 18.1278052,20.2435464 L18,20.25 L6,20.25 C5.35279131,20.25 4.8204661,19.7581253 4.75645361,19.1278052 L4.75,19 L4.75,12 C4.75,11.3096441 5.30964406,10.75 6,10.75 C6.64720869,10.75 7.1795339,11.2418747 7.24354639,11.8721948 L7.25,12 L7.25,17.75 L16.75,17.75 L16.75,12 C16.75,11.3527913 17.2418747,10.8204661 17.8721948,10.7564536 L18,10.75 Z M12,2.75 C12.4074523,2.75 12.7693721,2.94494828 12.9975731,3.24665879 L17.006634,7.55467081 C17.4771083,8.05988884 17.4489429,8.85084375 16.9437249,9.32131804 C16.470083,9.76238769 15.7453051,9.76519983 15.2688992,9.34754159 L15.1770776,9.25840894 L13.25,7.19 L13.25,14.9130057 C13.25,15.6033617 12.6903559,16.1630057 12,16.1630057 C11.3527913,16.1630057 10.8204661,15.6711311 10.7564536,15.040811 L10.75,14.9130057 L10.75,7.208 L8.84391233,9.2717441 C8.4047417,9.74714734 7.68222296,9.8043966 7.17578874,9.4237059 L7.07753101,9.3417227 C6.60212776,8.90255207 6.5448785,8.18003332 6.9255692,7.67359911 L7.0075524,7.57534137 L10.9935273,3.25857118 C11.2211531,2.95008956 11.5872099,2.75 12,2.75 Z"></path>
</svg>