<svg viewBox="0 0 32 32" version="1.1" xmlns="http://www.w3.org/2000/svg">
    <g id="Page-1" stroke="none" stroke-width="1" fill="none" fill-rule="evenodd">
        <g id="12.0-PreSchool---Audio-and-Annotation-tools" transform="translate(-642.000000, -373.000000)" fill="currentColor">
            <g id="annotation-tools" transform="translate(48.000000, 342.000000)">
                <g id="annotation-tools-open" transform="translate(376.000000, 22.000000)">
                    <g id="eraser-icon" transform="translate(212.000000, 3.000000)">
                        <g id="icons/erase/dark" transform="translate(6.000000, 6.000000)">
                            <path d="M29.414472,11.2205023 C30.3856522,10.2502137 30.3856522,8.6773757 29.414472,7.70708706 L22.7273486,1.01321103 C21.7558751,0.0432153715 20.1811165,0.0432153715 19.209643,1.01321103 L5.88515139,14.326421 L1.01409939,19.1716542 C0.0429192498,20.1419429 0.0429192498,21.7147809 1.01409939,22.6850695 L7.70122287,29.3789455 C8.84814966,30.4802251 10.1086194,30.3907746 11.482632,29.1105942 L13.4778228,27.1228062 L16.0899805,24.5188039 L29.414472,11.2205023 Z M20.8801576,3.5944433 C20.9854496,3.48828433 21.1287775,3.42857143 21.2782972,3.42857143 C21.4278168,3.42857143 21.5711448,3.48828433 21.6764368,3.5944433 L28.4055567,10.3235632 C28.5117157,10.4288552 28.5714286,10.5721832 28.5714286,10.7217028 C28.5714286,10.8712225 28.5117157,11.0145504 28.4055567,11.1198424 C28.3002647,11.2260014 28.1569368,11.2857143 28.0074171,11.2857143 C27.8578974,11.2857143 27.7145695,11.2260014 27.6092775,11.1198424 L20.8801576,4.39072249 C20.7739986,4.28543049 20.7142857,4.14210255 20.7142857,3.99258289 C20.7142857,3.84306323 20.7739986,3.69973529 20.8801576,3.5944433 Z M7.35714286,15.2142857 L15.2142857,23.0714286 L10.1632424,28.1224719 C9.91529047,28.3704238 9.51328096,28.3704238 9.26532903,28.1224719 L2.30609954,21.1632424 C2.05814761,20.9152905 2.05814761,20.513281 2.30609954,20.265329 L7.35714286,15.2142857 L7.35714286,15.2142857 Z" id="Shape" fill-rule="nonzero"></path>
                            <rect id="Rectangle" x="16" y="28.5714286" width="15.7142857" height="3.14285714" rx="0.634920635"></rect>
                            <rect id="Rectangle-Copy-2" x="19.1428571" y="23.8571429" width="7.85714286" height="3.14285714" rx="0.634920635"></rect>
                        </g>
                    </g>
                </g>
            </g>
        </g>
    </g>
</svg>