<!-- Generated by IcoMoon.io -->
<svg version="1.1" xmlns="http://www.w3.org/2000/svg" width="768" height="768" viewBox="0 0 768 768">
<title></title>
<g id="icomoon-ignore">
</g>
<path fill="#000" d="M384 64c176.731 0 320 143.269 320 320s-143.269 320-320 320c-176.731 0-320-143.269-320-320s143.269-320 320-320zM384 128c-141.385 0-256 114.615-256 256s114.615 256 256 256c141.385 0 256-114.615 256-256s-114.615-256-256-256z"></path>
<path fill="#000" d="M550.277 288c8.837 15.305 3.592 34.877-11.713 43.713l-138.564 80c-15.305 8.837-34.877 3.592-43.713-11.713s-3.592-34.877 11.713-43.713l138.564-80c15.305-8.837 34.876-3.593 43.713 11.713z"></path>
</svg>
