<svg viewBox="0 0 30 26" version="1.1" xmlns="http://www.w3.org/2000/svg">
    <g id="Page-1" stroke="none" stroke-width="1" fill="none" fill-rule="evenodd">
        <g id="12.0-PreSchool---Audio-and-Annotation-tools" transform="translate(-435.000000, -555.000000)" fill="currentColor" fill-rule="nonzero">
            <g id="annotation-tools" transform="translate(48.000000, 342.000000)">
                <g id="button/annotation-tools/active" transform="translate(376.000000, 200.000000)">
                    <g id="Shape" transform="translate(11.000000, 13.000000)">
                        <path d="M15.0684932,5.47368421 C18.9041096,5.47368421 21.9178082,8.48421053 21.9178082,12.3157895 C21.9178082,13.1368421 21.7808219,14.0947368 21.369863,14.7789474 L25.3424658,18.7473684 C27.3972603,16.9684211 29.0410959,14.7789474 30,12.1789474 C27.6712329,6.15789474 21.7808219,1.91578947 14.9315068,1.91578947 C13.0136986,1.91578947 11.2328767,2.18947368 9.45205479,2.87368421 L12.4657534,5.88421053 C13.2876712,5.61052632 14.2465753,5.47368421 15.0684932,5.47368421 Z M1.36986301,1.77894737 L4.52054795,4.92631579 L5.06849315,5.47368421 C2.73972603,7.25263158 0.95890411,9.57894737 0,12.3157895 C2.32876712,18.3368421 8.21917808,22.5789474 15.0684932,22.5789474 C17.260274,22.5789474 19.1780822,22.1684211 21.0958904,21.4842105 L21.6438356,22.0315789 L25.6164384,26 L27.3972603,24.2210526 L3.15068493,0 L1.36986301,1.77894737 Z M8.90410959,9.30526316 L10.9589041,11.4947368 C10.9589041,11.7684211 10.9589041,12.0421053 10.9589041,12.3157895 C10.9589041,14.6421053 12.739726,16.4210526 15.0684932,16.4210526 C15.3424658,16.4210526 15.6164384,16.4210526 15.890411,16.2842105 L18.0821918,18.3368421 C17.1232877,18.8842105 16.1643836,19.1578947 15.0684932,19.1578947 C11.2328767,19.1578947 8.21917808,16.1473684 8.21917808,12.3157895 C8.21917808,11.2210526 8.49315068,10.2631579 8.90410959,9.30526316 Z M14.7945205,8.21052632 L19.0410959,12.4526316 L19.0410959,12.1789474 C19.0410959,9.85263158 17.260274,8.07368421 14.9315068,8.07368421 L14.7945205,8.21052632 Z"></path>
                    </g>
                </g>
            </g>
        </g>
    </g>
</svg>