<svg xmlns="http://www.w3.org/2000/svg" viewBox="0 0 1400 14">
<style type="text/css">.st0{fill:#9FBEEB;}</style>
<polygon class="st0" points="971.2,6.4 968,6.4 0,6.4 0,13 1.7,13 1.7,11.7 4.3,11.7 4.3,13 6.8,13 6.8,11.7 9.3,11.7 9.3,13 
    11.9,13 11.9,11.7 14.4,11.7 14.4,13 16.9,13 16.9,11.7 19.5,11.7 19.5,13 22,13 22,11.7 24.5,11.7 24.5,13 27.1,13 27.1,11.7 
    29.6,11.7 29.6,13 32.2,13 32.2,11.7 34.7,11.7 34.7,13 37.2,13 37.2,11.7 39.8,11.7 39.8,13 42.3,13 42.3,11.7 44.8,11.7 44.8,13 
    47.4,13 47.4,11.7 49.9,11.7 49.9,13 52.4,13 52.4,11.7 55,11.7 55,13 57.5,13 57.5,11.7 60,11.7 60,13 62.6,13 62.6,11.7 
    65.1,11.7 65.1,13 67.6,13 67.6,11.7 70.2,11.7 70.2,13 72.7,13 72.7,11.7 75.2,11.7 75.2,13 77.8,13 77.8,11.7 80.3,11.7 80.3,13 
    82.8,13 82.8,11.7 85.4,11.7 85.4,13 87.9,13 87.9,11.7 90.5,11.7 90.5,13 93,13 93,11.7 95.5,11.7 95.5,13 98.1,13 98.1,11.7 
    100.6,11.7 100.6,13 103.1,13 103.1,11.7 105.7,11.7 105.7,13 108.2,13 108.2,11.7 110.7,11.7 110.7,13 113.3,13 113.3,11.7 
    115.8,11.7 115.8,13 118.3,13 118.3,11.7 120.9,11.7 120.9,13 123.4,13 123.4,11.7 125.9,11.7 125.9,13 128.5,13 128.5,11.7 
    131,11.7 131,13 133.5,13 133.5,11.7 136.1,11.7 136.1,13 138.6,13 138.6,11.7 141.1,11.7 141.1,13 143.7,13 143.7,11.7 146.2,11.7 
    146.2,13 148.7,13 148.7,11.7 151.3,11.7 151.3,13 153.8,13 153.8,11.7 156.4,11.7 156.4,13 158.9,13 158.9,11.7 161.4,11.7 
    161.4,13 164,13 164,11.7 166.5,11.7 166.5,13 169,13 169,11.7 171.6,11.7 171.6,13 174.1,13 174.1,11.7 176.6,11.7 176.6,13 
    179.2,13 179.2,11.7 181.7,11.7 181.7,13 184.2,13 184.2,11.7 186.8,11.7 186.8,13 189.3,13 189.3,11.7 191.8,11.7 191.8,13 
    194.4,13 194.4,11.7 196.9,11.7 196.9,13 199.4,13 199.4,11.7 202,11.7 202,13 204.5,13 204.5,11.7 207,11.7 207,13 209.6,13 
    209.6,11.7 212.1,11.7 212.1,13 214.7,13 214.7,11.7 217.2,11.7 217.2,13 219.7,13 219.7,11.7 222.3,11.7 222.3,13 224.8,13 
    224.8,11.7 227.3,11.7 227.3,13 229.9,13 229.9,11.7 232.4,11.7 232.4,13 234.9,13 234.9,11.7 237.5,11.7 237.5,13 240,13 240,11.7 
    242.5,11.7 242.5,13 245.1,13 245.1,11.7 247.6,11.7 247.6,13 250.1,13 250.1,11.7 252.7,11.7 252.7,13 255.2,13 255.2,11.7 
    257.7,11.7 257.7,13 260.3,13 260.3,11.7 262.8,11.7 262.8,13 265.3,13 265.3,11.7 267.9,11.7 267.9,13 270.4,13 270.4,11.7 
    273,11.7 273,13 275.5,13 275.5,11.7 278,11.7 278,13 280.6,13 280.6,11.7 283.1,11.7 283.1,13 285.6,13 285.6,11.7 288.2,11.7 
    288.2,13 290.7,13 290.7,11.7 293.2,11.7 293.2,13 295.8,13 295.8,11.7 298.3,11.7 298.3,13 300.8,13 300.8,11.7 303.4,11.7 
    303.4,13 305.9,13 305.9,11.7 308.4,11.7 308.4,13 311,13 311,11.7 313.5,11.7 313.5,13 316,13 316,11.7 318.6,11.7 318.6,13 
    321.1,13 321.1,11.7 323.6,11.7 323.6,13 326.2,13 326.2,11.7 328.7,11.7 328.7,13 331.2,13 331.2,11.7 333.8,11.7 333.8,13 
    336.3,13 336.3,11.7 338.9,11.7 338.9,13 341.4,13 341.4,11.7 343.9,11.7 343.9,13 346.5,13 346.5,11.7 349,11.7 349,13 351.5,13 
    351.5,11.7 354.1,11.7 354.1,13 356.6,13 356.6,11.7 359.1,11.7 359.1,13 361.7,13 361.7,11.7 364.2,11.7 364.2,13 366.7,13 
    366.7,11.7 369.3,11.7 369.3,13 371.8,13 371.8,11.7 374.3,11.7 374.3,13 376.9,13 376.9,11.7 379.4,11.7 379.4,13 381.9,13 
    381.9,11.7 384.5,11.7 384.5,13 387,13 387,11.7 389.5,11.7 389.5,13 392.1,13 392.1,11.7 394.6,11.7 394.6,13 397.2,13 397.2,11.7 
    399.7,11.7 399.7,13 402.2,13 402.2,11.7 404.8,11.7 404.8,13 407.3,13 407.3,11.7 409.8,11.7 409.8,13 412.4,13 412.4,11.7 
    414.9,11.7 414.9,13 417.4,13 417.4,11.7 420,11.7 420,13 422.5,13 422.5,11.7 425,11.7 425,13 427.6,13 427.6,11.7 430.1,11.7 
    430.1,13 432.6,13 432.6,11.7 435.2,11.7 435.2,13 437.7,13 437.7,11.7 440.2,11.7 440.2,13 442.8,13 442.8,11.7 445.3,11.7 
    445.3,13 447.8,13 447.8,11.7 450.4,11.7 450.4,13 452.9,13 452.9,11.7 455.4,11.7 455.4,13 458,13 458,11.7 460.5,11.7 460.5,13 
    463.1,13 463.1,11.7 465.6,11.7 465.6,13 468.1,13 468.1,11.7 470.7,11.7 470.7,13 473.2,13 473.2,11.7 475.7,11.7 475.7,13 
    478.3,13 478.3,11.7 480.8,11.7 480.8,13 483.3,13 483.3,11.7 485.9,11.7 485.9,13 488.4,13 488.4,11.7 490.9,11.7 490.9,13 
    493.5,13 493.5,11.7 496,11.7 496,13 498.5,13 498.5,11.7 501.1,11.7 501.1,13 503.6,13 503.6,11.7 506.1,11.7 506.1,13 508.7,13 
    508.7,11.7 511.2,11.7 511.2,13 511.2,13 513.7,13 513.7,13 513.7,11.7 516.3,11.7 516.3,13 516.3,13 518.8,13 518.8,11.7 
    521.3,11.7 521.3,13 523.9,13 523.9,11.7 526.4,11.7 526.4,13 528.9,13 528.9,11.7 531.5,11.7 531.5,13 534,13 534,11.7 536.6,11.7 
    536.6,13 539.1,13 539.1,11.7 541.6,11.7 541.6,13 544.2,13 544.2,11.7 546.7,11.7 546.7,13 549.2,13 549.2,11.7 551.8,11.7 
    551.8,13 554.3,13 554.3,11.7 556.8,11.7 556.8,13 559.4,13 559.4,11.7 561.9,11.7 561.9,13 564.4,13 564.4,11.7 567,11.7 567,13 
    569.5,13 569.5,11.7 572,11.7 572,13 574.6,13 574.6,11.7 577.1,11.7 577.1,13 579.6,13 579.6,11.7 582.2,11.7 582.2,13 584.7,13 
    584.7,11.7 587.2,11.7 587.2,13 589.8,13 589.8,11.7 592.3,11.7 592.3,13 594.8,13 594.8,11.7 597.4,11.7 597.4,13 599.9,13 
    599.9,11.7 602.5,11.7 602.5,13 605,13 605,11.7 607.5,11.7 607.5,13 610.1,13 610.1,11.7 612.6,11.7 612.6,13 615.1,13 615.1,11.7 
    617.7,11.7 617.7,13 620.2,13 620.2,11.7 622.7,11.7 622.7,13 625.3,13 625.3,11.7 627.8,11.7 627.8,13 630.3,13 630.3,11.7 
    632.9,11.7 632.9,13 635.4,13 635.4,11.7 637.9,11.7 637.9,13 640.5,13 640.5,11.7 643,11.7 643,13 645.5,13 645.5,11.7 648.1,11.7 
    648.1,13 650.6,13 650.6,11.7 653.1,11.7 653.1,13 655.7,13 655.7,11.7 658.2,11.7 658.2,13 660.8,13 660.8,11.7 663.3,11.7 
    663.3,13 665.8,13 665.8,11.7 668.4,11.7 668.4,13 670.9,13 670.9,11.7 673.4,11.7 673.4,13 676,13 676,11.7 678.5,11.7 678.5,13 
    681,13 681,11.7 683.6,11.7 683.6,13 686.1,13 686.1,11.7 688.6,11.7 688.6,13 691.2,13 691.2,11.7 693.7,11.7 693.7,13 696.2,13 
    696.2,11.7 698.8,11.7 698.8,13 701.3,13 701.3,11.7 703.8,11.7 703.8,13 706.4,13 706.4,11.7 708.9,11.7 708.9,13 711.4,13 
    711.4,11.7 714,11.7 714,13 716.5,13 716.5,11.7 719.1,11.7 719.1,13 721.6,13 721.6,11.7 724.1,11.7 724.1,13 726.7,13 726.7,11.7 
    729.2,11.7 729.2,13 731.7,13 731.7,11.7 734.3,11.7 734.3,13 736.8,13 736.8,11.7 739.3,11.7 739.3,13 741.9,13 741.9,11.7 
    744.4,11.7 744.4,13 746.9,13 746.9,11.7 749.5,11.7 749.5,13 752,13 752,11.7 754.5,11.7 754.5,13 757.1,13 757.1,11.7 759.6,11.7 
    759.6,13 762.1,13 762.1,11.7 764.7,11.7 764.7,13 767.2,13 767.2,11.7 769.7,11.7 769.7,13 772.3,13 772.3,11.7 774.8,11.7 
    774.8,13 777.3,13 777.3,11.7 779.9,11.7 779.9,13 782.4,13 782.4,11.7 785,11.7 785,13 787.5,13 787.5,11.7 790,11.7 790,13 
    792.6,13 792.6,11.7 795.1,11.7 795.1,13 797.6,13 797.6,11.7 800.2,11.7 800.2,13 802.7,13 802.7,11.7 805.2,11.7 805.2,13 
    807.8,13 807.8,11.7 810.3,11.7 810.3,13 812.8,13 812.8,11.7 815.4,11.7 815.4,13 817.9,13 817.9,11.7 820.4,11.7 820.4,13 823,13 
    823,11.7 825.5,11.7 825.5,13 828,13 828,11.7 830.6,11.7 830.6,13 833.1,13 833.1,11.7 835.6,11.7 835.6,13 838.2,13 838.2,11.7 
    840.7,11.7 840.7,13 843.3,13 843.3,11.7 845.8,11.7 845.8,13 848.3,13 848.3,11.7 850.9,11.7 850.9,13 853.4,13 853.4,11.7 
    855.9,11.7 855.9,13 858.5,13 858.5,11.7 861,11.7 861,13 863.5,13 863.5,11.7 866.1,11.7 866.1,13 868.6,13 868.6,11.7 871.1,11.7 
    871.1,13 873.7,13 873.7,11.7 876.2,11.7 876.2,13 878.7,13 878.7,11.7 881.3,11.7 881.3,13 883.8,13 883.8,11.7 886.3,11.7 
    886.3,13 888.9,13 888.9,11.7 891.4,11.7 891.4,13 893.9,13 893.9,11.7 896.5,11.7 896.5,13 899,13 899,11.7 901.6,11.7 901.6,13 
    904.1,13 904.1,11.7 906.6,11.7 906.6,13 909.2,13 909.2,11.7 911.7,11.7 911.7,13 914.2,13 914.2,11.7 916.8,11.7 916.8,13 
    919.3,13 919.3,11.7 921.8,11.7 921.8,13 924.4,13 924.4,11.7 926.9,11.7 926.9,13 929.4,13 929.4,11.7 932,11.7 932,13 934.5,13 
    934.5,11.7 937,11.7 937,13 939.6,13 939.6,11.7 942.1,11.7 942.1,13 944.6,13 944.6,11.7 947.2,11.7 947.2,13 949.7,13 949.7,11.7 
    952.2,11.7 952.2,13 954.8,13 954.8,11.7 957.3,11.7 957.3,13 959.8,13 959.8,11.7 962.4,11.7 962.4,13 964.9,13 964.9,11.7 
    967.5,11.7 967.5,13 968,13 969.7,13 970,13 970,11.7 971.2,11.7 972.3,11.7 972.3,13 974.8,13 974.8,11.7 977.3,11.7 977.3,13 
    979.9,13 979.9,11.7 982.4,11.7 982.4,13 984.9,13 984.9,11.7 987.5,11.7 987.5,13 990,13 990,11.7 992.5,11.7 992.5,13 995.1,13 
    995.1,11.7 997.6,11.7 997.6,13 1000.2,13 1000.2,11.7 1002.7,11.7 1002.7,13 1005.2,13 1005.2,11.7 1007.8,11.7 1007.8,13 
    1010.3,13 1010.3,11.7 1012.8,11.7 1012.8,13 1015.4,13 1015.4,11.7 1017.9,11.7 1017.9,13 1020.4,13 1020.4,11.7 1023,11.7 
    1023,13 1025.5,13 1025.5,11.7 1028,11.7 1028,13 1030.6,13 1030.6,11.7 1033.1,11.7 1033.1,13 1035.6,13 1035.6,11.7 1038.2,11.7 
    1038.2,13 1040.7,13 1040.7,11.7 1043.2,11.7 1043.2,13 1045.8,13 1045.8,11.7 1048.3,11.7 1048.3,13 1050.8,13 1050.8,11.7 
    1053.4,11.7 1053.4,13 1055.9,13 1055.9,11.7 1058.5,11.7 1058.5,13 1061,13 1061,11.7 1063.5,11.7 1063.5,13 1066.1,13 
    1066.1,11.7 1068.6,11.7 1068.6,13 1071.1,13 1071.1,11.7 1073.7,11.7 1073.7,13 1076.2,13 1076.2,11.7 1078.7,11.7 1078.7,13 
    1081.3,13 1081.3,11.7 1083.8,11.7 1083.8,13 1086.3,13 1086.3,11.7 1088.9,11.7 1088.9,13 1091.4,13 1091.4,11.7 1093.9,11.7 
    1093.9,13 1096.5,13 1096.5,11.7 1099,11.7 1099,13 1101.5,13 1101.5,11.7 1104.1,11.7 1104.1,13 1106.6,13 1106.6,11.7 
    1109.1,11.7 1109.1,13 1111.7,13 1111.7,11.7 1114.2,11.7 1114.2,13 1116.7,13 1116.7,11.7 1119.3,11.7 1119.3,13 1121.8,13 
    1121.8,11.7 1124.4,11.7 1124.4,13 1126.9,13 1126.9,11.7 1129.4,11.7 1129.4,13 1132,13 1132,11.7 1134.5,11.7 1134.5,13 1137,13 
    1137,11.7 1139.6,11.7 1139.6,13 1142.1,13 1142.1,11.7 1144.6,11.7 1144.6,13 1147.2,13 1147.2,11.7 1149.7,11.7 1149.7,13 
    1152.2,13 1152.2,11.7 1154.8,11.7 1154.8,13 1157.3,13 1157.3,11.7 1159.8,11.7 1159.8,13 1162.4,13 1162.4,11.7 1164.9,11.7 
    1164.9,13 1167.4,13 1167.4,11.7 1170,11.7 1170,13 1172.5,13 1172.5,11.7 1175,11.7 1175,13 1177.6,13 1177.6,11.7 1180.1,11.7 
    1180.1,13 1182.7,13 1182.7,11.7 1185.2,11.7 1185.2,13 1187.7,13 1187.7,11.7 1190.3,11.7 1190.3,13 1192.8,13 1192.8,11.7 
    1195.3,11.7 1195.3,13 1197.9,13 1197.9,11.7 1200.4,11.7 1200.4,13 1202.9,13 1202.9,11.7 1205.5,11.7 1205.5,13 1208,13 
    1208,11.7 1210.5,11.7 1210.5,13 1213.1,13 1213.1,11.7 1215.6,11.7 1215.6,13 1218.1,13 1218.1,11.7 1220.7,11.7 1220.7,13 
    1223.2,13 1223.2,11.7 1225.7,11.7 1225.7,13 1228.3,13 1228.3,11.7 1230.8,11.7 1230.8,13 1233.3,13 1233.3,11.7 1235.9,11.7 
    1235.9,13 1238.4,13 1238.4,11.7 1240.9,11.7 1240.9,13 1243.5,13 1243.5,11.7 1246,11.7 1246,13 1248.6,13 1248.6,11.7 
    1251.1,11.7 1251.1,13 1253.6,13 1253.6,11.7 1256.2,11.7 1256.2,13 1258.7,13 1258.7,11.7 1261.2,11.7 1261.2,13 1263.8,13 
    1263.8,11.7 1266.3,11.7 1266.3,13 1268.8,13 1268.8,11.7 1271.4,11.7 1271.4,13 1273.9,13 1273.9,11.7 1276.4,11.7 1276.4,13 
    1279,13 1279,11.7 1281.5,11.7 1281.5,13 1284,13 1284,11.7 1286.6,11.7 1286.6,13 1289.1,13 1289.1,11.7 1291.6,11.7 1291.6,13 
    1294.2,13 1294.2,11.7 1296.7,11.7 1296.7,13 1299.2,13 1299.2,11.7 1301.8,11.7 1301.8,13 1304.3,13 1304.3,11.7 1306.9,11.7 
    1306.9,13 1309.4,13 1309.4,11.7 1311.9,11.7 1311.9,13 1314.5,13 1314.5,11.7 1317,11.7 1317,13 1319.5,13 1319.5,11.7 
    1322.1,11.7 1322.1,13 1324.6,13 1324.6,11.7 1327.1,11.7 1327.1,13 1329.7,13 1329.7,11.7 1332.2,11.7 1332.2,13 1334.7,13 
    1334.7,11.7 1337.3,11.7 1337.3,13 1339.8,13 1339.8,11.7 1342.3,11.7 1342.3,13 1344.9,13 1344.9,11.7 1347.4,11.7 1347.4,13 
    1349.9,13 1349.9,11.7 1352.5,11.7 1352.5,13 1355,13 1355,11.7 1357.5,11.7 1357.5,13 1360.1,13 1360.1,11.7 1362.6,11.7 
    1362.6,13 1365.2,13 1365.2,11.7 1367.7,11.7 1367.7,13 1370.2,13 1370.2,11.7 1372.8,11.7 1372.8,13 1375.3,13 1375.3,11.7 
    1377.8,11.7 1377.8,13 1380.4,13 1380.4,11.7 1382.9,11.7 1382.9,13 1385.4,13 1385.4,11.7 1388,11.7 1388,13 1390.5,13 
    1390.5,11.7 1393,11.7 1393,13 1395.6,13 1395.6,11.7 1398.1,11.7 1398.1,13 1400.6,13 1400.6,11.7 1403.2,11.7 1403.2,13 
    1405.7,13 1405.7,11.7 1408.2,11.7 1408.2,13 1410.8,13 1410.8,11.7 1413.3,11.7 1413.3,13 1415.8,13 1415.8,11.7 1418.4,11.7 
    1418.4,13 1420.9,13 1420.9,11.7 1423.4,11.7 1423.4,13 1426,13 1426,11.7 1428.5,11.7 1428.5,13 1431.1,13 1431.1,11.7 
    1433.6,11.7 1433.6,13 1436.1,13 1436.1,11.7 1438.7,11.7 1438.7,13 1441.2,13 1441.2,11.7 1443.7,11.7 1443.7,13 1446.3,13 
    1446.3,11.7 1448.8,11.7 1448.8,13 1451.3,13 1451.3,11.7 1453.9,11.7 1453.9,13 1456.4,13 1456.4,11.7 1458.9,11.7 1458.9,13 
    1461.5,13 1461.5,11.7 1464,11.7 1464,13 1466.5,13 1466.5,11.7 1469.1,11.7 1469.1,13 1471.6,13 1471.6,11.7 1474.1,11.7 
    1474.1,13 1476.7,13 1476.7,11.7 1479.2,11.7 1479.2,13 1479.2,13 1481.7,13 1481.7,13 1481.7,11.7 1484.3,11.7 1484.3,13 
    1484.3,13 1486.8,13 1486.8,11.7 1489.3,11.7 1489.3,13 1491.9,13 1491.9,11.7 1494.4,11.7 1494.4,13 1496.9,13 1496.9,11.7 
    1499.5,11.7 1499.5,13 1502,13 1502,11.7 1504.6,11.7 1504.6,13 1507.1,13 1507.1,11.7 1509.6,11.7 1509.6,13 1512.2,13 
    1512.2,11.7 1514.7,11.7 1514.7,13 1517.2,13 1517.2,11.7 1519.8,11.7 1519.8,13 1522.3,13 1522.3,11.7 1524.8,11.7 1524.8,13 
    1527.4,13 1527.4,11.7 1529.9,11.7 1529.9,13 1532.4,13 1532.4,11.7 1535,11.7 1535,13 1537.5,13 1537.5,11.7 1540,11.7 1540,13 
    1542.6,13 1542.6,11.7 1545.1,11.7 1545.1,13 1547.6,13 1547.6,11.7 1550.2,11.7 1550.2,13 1552.7,13 1552.7,11.7 1555.2,11.7 
    1555.2,13 1557.8,13 1557.8,11.7 1560.3,11.7 1560.3,13 1562.8,13 1562.8,11.7 1565.4,11.7 1565.4,13 1567.9,13 1567.9,11.7 
    1570.5,11.7 1570.5,13 1573,13 1573,11.7 1575.5,11.7 1575.5,13 1578.1,13 1578.1,11.7 1580.6,11.7 1580.6,13 1583.1,13 
    1583.1,11.7 1585.7,11.7 1585.7,13 1588.2,13 1588.2,11.7 1590.7,11.7 1590.7,13 1593.3,13 1593.3,11.7 1595.8,11.7 1595.8,13 
    1598.3,13 1598.3,11.7 1600.9,11.7 1600.9,13 1603.4,13 1603.4,11.7 1605.9,11.7 1605.9,13 1608.5,13 1608.5,11.7 1611,11.7 
    1611,13 1613.5,13 1613.5,11.7 1616.1,11.7 1616.1,13 1618.6,13 1618.6,11.7 1621.1,11.7 1621.1,13 1623.7,13 1623.7,11.7 
    1626.2,11.7 1626.2,13 1628.8,13 1628.8,11.7 1631.3,11.7 1631.3,13 1633.8,13 1633.8,11.7 1636.4,11.7 1636.4,13 1638.9,13 
    1638.9,11.7 1641.4,11.7 1641.4,13 1644,13 1644,11.7 1646.5,11.7 1646.5,13 1649,13 1649,11.7 1651.6,11.7 1651.6,13 1654.1,13 
    1654.1,11.7 1656.6,11.7 1656.6,13 1659.2,13 1659.2,11.7 1661.7,11.7 1661.7,13 1664.2,13 1664.2,11.7 1666.8,11.7 1666.8,13 
    1669.3,13 1669.3,11.7 1671.8,11.7 1671.8,13 1674.4,13 1674.4,11.7 1676.9,11.7 1676.9,13 1679.4,13 1679.4,11.7 1682,11.7 
    1682,13 1684.5,13 1684.5,11.7 1687.1,11.7 1687.1,13 1689.6,13 1689.6,11.7 1692.1,11.7 1692.1,13 1694.7,13 1694.7,11.7 
    1697.2,11.7 1697.2,13 1699.7,13 1699.7,11.7 1702.3,11.7 1702.3,13 1704.8,13 1704.8,11.7 1707.3,11.7 1707.3,13 1709.9,13 
    1709.9,11.7 1712.4,11.7 1712.4,13 1714.9,13 1714.9,11.7 1717.5,11.7 1717.5,13 1720,13 1720,11.7 1722.5,11.7 1722.5,13 
    1725.1,13 1725.1,11.7 1727.6,11.7 1727.6,13 1730.1,13 1730.1,11.7 1732.7,11.7 1732.7,13 1735.2,13 1735.2,11.7 1737.7,11.7 
    1737.7,13 1740.3,13 1740.3,11.7 1742.8,11.7 1742.8,13 1745.3,13 1745.3,11.7 1747.9,11.7 1747.9,13 1750.4,13 1750.4,11.7 
    1753,11.7 1753,13 1755.5,13 1755.5,11.7 1758,11.7 1758,13 1760.6,13 1760.6,11.7 1763.1,11.7 1763.1,13 1765.6,13 1765.6,11.7 
    1768.2,11.7 1768.2,13 1770.7,13 1770.7,11.7 1773.2,11.7 1773.2,13 1775.8,13 1775.8,11.7 1778.3,11.7 1778.3,13 1780.8,13 
    1780.8,11.7 1783.4,11.7 1783.4,13 1785.9,13 1785.9,11.7 1788.4,11.7 1788.4,13 1791,13 1791,11.7 1793.5,11.7 1793.5,13 1796,13 
    1796,11.7 1798.6,11.7 1798.6,13 1801.1,13 1801.1,11.7 1803.6,11.7 1803.6,13 1806.2,13 1806.2,11.7 1808.7,11.7 1808.7,13 
    1811.3,13 1811.3,11.7 1813.8,11.7 1813.8,13 1816.3,13 1816.3,11.7 1818.9,11.7 1818.9,13 1821.4,13 1821.4,11.7 1823.9,11.7 
    1823.9,13 1826.5,13 1826.5,11.7 1829,11.7 1829,13 1831.5,13 1831.5,11.7 1834.1,11.7 1834.1,13 1836.6,13 1836.6,11.7 
    1839.1,11.7 1839.1,13 1841.7,13 1841.7,11.7 1844.2,11.7 1844.2,13 1846.7,13 1846.7,11.7 1849.3,11.7 1849.3,13 1851.8,13 
    1851.8,11.7 1854.3,11.7 1854.3,13 1856.9,13 1856.9,11.7 1859.4,11.7 1859.4,13 1861.9,13 1861.9,11.7 1864.5,11.7 1864.5,13 
    1867,13 1867,11.7 1869.6,11.7 1869.6,13 1872.1,13 1872.1,11.7 1874.6,11.7 1874.6,13 1877.2,13 1877.2,11.7 1879.7,11.7 
    1879.7,13 1882.2,13 1882.2,11.7 1884.8,11.7 1884.8,13 1887.3,13 1887.3,11.7 1889.8,11.7 1889.8,13 1892.4,13 1892.4,11.7 
    1894.9,11.7 1894.9,13 1897.4,13 1897.4,11.7 1900,11.7 1900,13 1902.5,13 1902.5,11.7 1905,11.7 1905,13 1907.6,13 1907.6,11.7 
    1910.1,11.7 1910.1,13 1912.6,13 1912.6,11.7 1915.2,11.7 1915.2,13 1917.7,13 1917.7,11.7 1920.2,11.7 1920.2,13 1922.8,13 
    1922.8,11.7 1925.3,11.7 1925.3,13 1927.8,13 1927.8,11.7 1930.4,11.7 1930.4,13 1932.9,13 1932.9,11.7 1935.5,11.7 1935.5,13 
    1938,13 1938,11.7 1939.2,11.7 1939.2,6.4 "/>
</svg>
