<?xml version="1.0" encoding="UTF-8"?>
<svg width="79px" height="14px" viewBox="0 0 79 14" version="1.1" xmlns="http://www.w3.org/2000/svg" xmlns:xlink="http://www.w3.org/1999/xlink">
    <!-- Generator: Sketch 60 (88103) - https://sketch.com -->
    <title>email_set</title>
    <desc>Created with Sketch.</desc>
    <g id="email_set" stroke="none" stroke-width="1" fill="none" fill-rule="evenodd">
        <line x1="70.2666667" y1="4.26666667" x2="77.7333333" y2="11.7333333" id="Line" stroke="#FFFFFF" stroke-linecap="square"></line>
        <line x1="70.2666667" y1="4.26666667" x2="77.7333333" y2="11.7333333" id="Line-Copy" stroke="#FFFFFF" stroke-linecap="square" transform="translate(74.000000, 8.000000) scale(-1, 1) translate(-74.000000, -8.000000) "></line>
        <path d="M20.7232499,0.400051395 C20.7433141,0.299730484 20.7192371,0.19472793 20.6512418,0.115808813 C20.5714309,0.0232906392 20.4477018,-0.0181753374 20.3279855,0.00746222879 L0.264249134,4.31680271 C0.126252147,4.34645311 0.0216954641,4.45948134 0.00296889397,4.59948474 C-0.0157576761,4.73948815 0.0553587032,4.87592459 0.18087131,4.94079878 L5.88823942,7.89290879 L6.22799291,10.0288525 L6.73583965,13.7112987 C6.75166806,13.8263334 6.8256826,13.9244249 6.9315769,13.9714643 C6.97504929,13.9906367 7.02119691,14 7.0671216,14 C7.1333334,14 7.19932226,13.9803817 7.25572491,13.9415909 L11.2953136,11.1814283 L11.293976,11.1794218 L15.2994556,13.8105049 C15.3843939,13.8664617 15.4905112,13.8805066 15.5872651,13.8488498 C15.6840191,13.817193 15.7609318,13.7429555 15.7963785,13.6477621 L20.6102217,0.723084729 C20.7067527,0.642159194 20.7482187,0.518653006 20.7232499,0.400051395 Z M1.31605816,4.77471193 L18.4058369,1.10430419 L6.19254619,7.29722551 L1.31605816,4.77471193 Z M8.41944748,8.74898057 L8.42033922,8.75031818 C8.36371364,8.79156122 8.31957244,8.84863267 8.29750184,8.91662796 L7.24569282,12.1683631 L6.88921918,9.92763981 L6.6011867,7.83962724 L16.7940142,2.67153976 L8.41944748,8.74898057 Z M7.74529096,12.7972637 L8.79888346,9.54040109 L10.6920505,10.7839345 L7.74529096,12.7972637 Z M15.3161757,13.0210908 L9.20417994,9.00602504 L19.629529,1.44004484 L15.3161757,13.0210908 Z" id="Shape" fill="#FFFFFF" fill-rule="nonzero"></path>
        <rect id="Rectangle" fill="#FFFFFF" fill-rule="nonzero" x="40.5683824" y="7.93188164" width="2.05882353" height="1.02941176" rx="0.514705882"></rect>
        <rect id="Rectangle" fill="#FFFFFF" fill-rule="nonzero" x="40.5683824" y="10.1965875" width="5.14705882" height="1.02941176" rx="0.514705882"></rect>
        <path d="M49.7455882,13.912764 L39.6316176,13.912764 C38.7305001,13.912764 38,13.1822639 38,12.2811463 L38,2.1620287 C38,1.26091116 38.7305001,0.530411054 39.6316176,0.530411054 L45.2007353,0.530411054 C45.4849995,0.530411054 45.7154412,0.760852727 45.7154412,1.04511694 L45.7154412,1.04511694 C45.7154412,1.32938115 45.4849995,1.55982282 45.2007353,1.55982282 L39.6316176,1.55982282 C39.4710128,1.55845008 39.3165138,1.62129006 39.2024626,1.7343747 C39.0884114,1.84745934 39.0242588,2.00141797 39.0242647,2.1620287 L39.0242647,12.2759993 C39.0270617,12.607423 39.2950469,12.8754082 39.6264706,12.8782052 L49.7455882,12.8782052 C50.0770119,12.8754082 50.3449971,12.607423 50.3477941,12.2759993 L50.3477941,6.70688164 C50.3477941,6.42261743 50.5782358,6.19217576 50.8625,6.19217576 L50.8625,6.19217576 C51.1467642,6.19217576 51.377214,6.42261743 51.377214,6.70688164 L51.377214,12.2759993 C51.3785738,12.7096223 51.2072758,13.1259541 50.9011397,13.4330559 C50.5950037,13.7401577 50.1792134,13.912764 49.7455882,13.912764 L49.7455882,13.912764 Z" id="Path" fill="#FFFFFF" fill-rule="nonzero"></path>
        <path d="M45.5301471,8.06055811 L43.8470588,8.06055811 L43.8470588,6.37746988 C43.8469556,6.0567393 43.9747823,5.74921428 44.2022059,5.52305811 L49.375,0.339969877 C49.5897011,0.122444632 49.8825986,0 50.1882353,0 C50.493872,0 50.7867694,0.122444632 51.0014706,0.339969877 L51.5727941,0.911293407 C51.7871522,1.12559062 51.9075825,1.41627656 51.9075825,1.71938164 C51.9075825,2.02248672 51.7871522,2.31317266 51.5727941,2.52746988 L46.3691176,7.70541105 C46.1458211,7.92770033 45.845175,8.05496773 45.5301471,8.06055811 Z M44.8764521,7.03116486 L45.5301471,7.03116486 C45.5781867,7.03183467 45.6245109,7.01330496 45.6588235,6.97967576 L50.8316176,1.80173458 C50.8754535,1.75758062 50.8754535,1.68632973 50.8316176,1.64217576 L50.2602941,1.07599929 C50.2161401,1.03216347 50.1448893,1.03216347 50.1007353,1.07599929 L44.9279412,6.25394047 C44.894312,6.28825305 44.8757823,6.33457734 44.8764521,6.38261694 L44.8764521,7.03116486 Z" id="Shape" fill="#FFFFFF" fill-rule="nonzero"></path>
    </g>
</svg>