<svg version="1.1" xmlns="http://www.w3.org/2000/svg" xmlns:xlink="http://www.w3.org/1999/xlink" viewBox="0 0 283.46 283.46">
  <linearGradient id="SVGID_1" gradientUnits="userSpaceOnUse" x1="214.4273" y1="234.8162" x2="114.6615" y2="176.7173">
    <stop offset="0" style="stop-color:#FC0153"/>
    <stop offset="1" style="stop-color:#3800E7"/>
  </linearGradient>
  <path fill="url(#SVGID_1)" d="M205.6,238.22c-63.31,0-86.5-55.98-87.46-58.36c-2.45-6.1,0.51-13.04,6.62-15.48 c6.09-2.44,13.01,0.5,15.47,6.58c0.77,1.88,18.47,43.46,65.37,43.46c6.58,0,11.91,5.33,11.91,11.91 C217.51,232.88,212.18,238.22,205.6,238.22z"/>

  <linearGradient id="SVGID_2" gradientUnits="userSpaceOnUse" x1="69.1292" y1="201.6181" x2="198.7787" y2="55.1622">
    <stop offset="0" style="stop-color:#FC0153"/>
    <stop offset="1" style="stop-color:#3800E7"/>
  </linearGradient>
  <path fill="url(#SVGID_2)" d="M127.01,244.17c-1.85,0-3.73-0.43-5.49-1.35c-25.86-13.46-45.43-34.29-56.6-60.24 c-10.17-23.63-12.53-49.87-6.66-73.89c10.47-42.82,44.09-69.42,87.72-69.42c56.6,0,82.37,40.5,82.37,78.13 c0,22.15-10.28,42.78-28.21,56.61c-19.88,15.33-46.84,20.05-73.98,12.92c-6.36-1.67-10.16-8.18-8.49-14.54 c1.67-6.36,8.18-10.16,14.54-8.49c20.23,5.31,39.19,2.2,53.39-8.75c12.04-9.29,18.94-23.05,18.94-37.76 c0-27.04-18.11-54.32-58.56-54.32c-32.59,0-56.74,19.17-64.59,51.27c-8.44,34.5,3.96,82.81,51.12,107.35 c5.83,3.04,8.1,10.22,5.07,16.06C135.46,241.83,131.31,244.17,127.01,244.17z"/>
</svg>
