<svg viewBox="0 0 53 60" xmlns="http://www.w3.org/2000/svg">
    <g stroke="none">
      <path d="M41.9895469,59.2184417 L10.5444602,59.2184417 C9.50884358,59.2184417 8.56737392,58.559413 8.28493302,57.5237963 L6.49614067,51.5925375 C6.02540584,50.086186 7.15516943,48.5798346 8.75566786,48.5798346 L43.3076044,48.5798346 C44.8139559,48.5798346 45.9437195,49.992039 45.5671316,51.4983905 L44.1549271,57.4296494 C44.0607802,58.465266 43.1193105,59.2184417 41.9895469,59.2184417" fill="#4D3E75"></path>
      <path d="M30.2211761,37.6587865 L30.2211761,33.328026 L21.8420962,33.328026 L21.8420962,37.6587865 C21.8420962,38.1295213 22.218684,38.5061092 22.6894189,38.5061092 L24.1016233,38.5061092 L24.1016233,46.2261604 L23.1601537,46.2261604 C22.6894189,46.2261604 22.312831,46.6027483 22.312831,47.0734831 L22.312831,48.4856876 L29.8445883,48.4856876 L29.8445883,47.0734831 C29.8445883,46.6027483 29.4680004,46.2261604 28.9972656,46.2261604 L28.0557959,46.2261604 L28.0557959,38.5061092 L29.3738534,38.5061092 C29.8445883,38.5061092 30.2211761,38.1295213 30.2211761,37.6587865" fill="#4D3E75"></path>
      <path d="M48.9564224,12.3332526 L3.10684988,12.3332526 C1.41220449,12.3332526 -1.13686838e-13,10.9210481 -1.13686838e-13,9.22640269 L-1.13686838e-13,3.10684988 C-1.13686838e-13,1.41220449 1.41220449,0 3.10684988,0 L48.9564224,0 C50.6510678,0 52.0632723,1.41220449 52.0632723,3.10684988 L52.0632723,9.22640269 C52.0632723,10.9210481 50.6510678,12.3332526 48.9564224,12.3332526" fill="#4D3E75"></path>
      <path d="M39.8241667,5.08393617 L12.3332526,5.08393617 C8.56737392,5.08393617 5.46052404,8.19078606 5.46052404,11.9566647 C5.46052404,15.7225434 8.56737392,18.8293932 12.3332526,18.8293932 L19.0176872,18.8293932 L19.0176872,28.8089717 C19.0176872,32.5748503 22.1245371,35.6817002 25.8904157,35.6817002 L26.2670036,35.6817002 C30.0328822,35.6817002 33.1397321,32.5748503 33.1397321,28.8089717 L33.1397321,18.8293932 L39.8241667,18.8293932 C43.5900453,18.8293932 46.6968952,15.7225434 46.6968952,11.9566647 C46.6968952,8.19078606 43.5900453,5.08393617 39.8241667,5.08393617" fill="#9FBEEB"></path>
      <path d="M16.8523069,11.9566647 C16.8523069,14.1220449 15.0635146,15.8166903 12.9922813,15.8166903 C10.8269011,15.8166903 9.13225572,14.027898 9.13225572,11.9566647 C9.13225572,9.79128448 10.9210481,8.09663909 12.9922813,8.09663909 C15.1576616,8.09663909 16.8523069,9.79128448 16.8523069,11.9566647" fill="#4D3E75"></path>
      <path d="M42.8368696,11.9566647 C42.8368696,14.1220449 41.0480773,15.8166903 38.976844,15.8166903 C36.8114638,15.8166903 35.1168184,14.027898 35.1168184,11.9566647 C35.1168184,9.79128448 36.9056107,8.09663909 38.976844,8.09663909 C41.1422242,8.09663909 42.8368696,9.79128448 42.8368696,11.9566647" fill="#4D3E75"></path>
      <path d="M30.2211761,28.6206777 C30.2211761,30.7860579 28.4323838,32.4807033 26.3611505,32.4807033 C24.1957703,32.4807033 22.5011249,30.691911 22.5011249,28.6206777 C22.5011249,26.4552975 24.2899173,24.7606521 26.3611505,24.7606521 C28.5265308,24.7606521 30.2211761,26.5494445 30.2211761,28.6206777" fill="#4D3E75"></path>
    </g>
</svg>