<svg xmlns="http://www.w3.org/2000/svg" viewBox="0 0 19 20">
  <path d="M11,15.0314779 L13,15.0314779 L13,19 C13,19.5522847 12.5522847,20 12,20 L1,20 C0.44771525,20 0,19.5522847 0,19 L0,3.82047613 C0,3.63105919 0.102919947,3.39018345 0.308759841,3.0978489 L3.05315089,0.310381497 C3.34598,0.103460499 3.5873718,0 3.77732631,0 L12,0 C12.5522847,0 13,0.44771525 13,1 L13,5.31570425 L11,5.31570425 L11,2 L4.77732631,2 L4.77732631,3.82047613 C4.77732631,4.37276088 4.32961106,4.82047613 3.77732631,4.82047613 L2,4.82047613 L2,18 L11,18 L11,15.0314779 Z M10.3821761,3.8835426 C13.9698401,4.00882659 16.7766537,7.01876567 16.6513697,10.6064297 C16.6051296,11.9305724 16.1659372,13.1483463 15.4497778,14.1515934 L17.9729229,16.8578015 C18.5379088,17.4636748 18.5047631,18.4128437 17.8988899,18.9778296 C17.3308837,19.5075039 16.4611528,19.5114766 15.8891212,19.01068 L15.7788618,18.9037966 L13.1909808,16.1284193 C12.2199163,16.6423432 11.1052786,16.916718 9.9284826,16.8756234 C6.34081857,16.7503394 3.53400497,13.7404003 3.65928895,10.1527362 C3.78457294,6.56507221 6.79451202,3.75825861 10.3821761,3.8835426 Z M5.65807061,10.2225352 C5.57133554,12.7063026 7.5145142,14.7901066 9.9982816,14.8768417 C12.482049,14.9635768 14.565853,13.0203981 14.6525881,10.5366307 C14.7393231,8.0528633 12.7961445,5.96905932 10.3123771,5.88232425 C7.8286097,5.79558919 5.74480568,7.73876783 5.65807061,10.2225352 Z"/>
</svg>
